<?xml version="1.0" encoding="utf-8"?>
<!-- Generator: Adobe Illustrator 25.2.0, SVG Export Plug-In . SVG Version: 6.00 Build 0)  -->
<svg version="1.1" id="Layer_1" xmlns="http://www.w3.org/2000/svg" xmlns:xlink="http://www.w3.org/1999/xlink" x="0px" y="0px"
	 viewBox="0 0 100 100" style="enable-background:new 0 0 100 100;" xml:space="preserve">
<style type="text/css">
	.st0{display:none;}
	.st1{display:inline;}
	.st2{clip-path:url(#SVGID_2_);fill:#FFFFFF;}
	.st3{clip-path:url(#SVGID_2_);}
	.st4{fill:#773D27;}
	.st5{fill:#4D94B7;}
	.st6{fill:#FA9D80;}
	.st7{opacity:0.45;fill:#F39175;}
	.st8{fill:#FFAD8B;}
	.st9{fill:#3B2D2C;}
	.st10{fill:#3D1605;stroke:#3D1605;stroke-width:0.5261;stroke-linecap:round;stroke-linejoin:round;}
	.st11{fill:#FFFFFF;}
	.st12{fill:none;stroke:#F88F6C;stroke-width:0.2631;stroke-linecap:round;stroke-linejoin:round;stroke-miterlimit:10;}
	.st13{fill:none;stroke:#672C18;stroke-miterlimit:10;}
	.st14{fill:#54B0A4;}
	.st15{fill:#D9685B;}
	.st16{fill:#8ED8CF;}
	.st17{clip-path:url(#SVGID_4_);fill:#FFFFFF;}
	.st18{clip-path:url(#SVGID_4_);}
	.st19{fill:#4F2300;}
	.st20{fill:#FDB293;}
	.st21{fill:#FDC8A9;}
	.st22{fill:url(#SVGID_5_);}
	.st23{fill:url(#SVGID_6_);}
	.st24{opacity:0.25;fill:#FDB293;}
	.st25{fill:#F8BE9F;}
	.st26{fill:none;stroke:#F68D6C;stroke-width:1;stroke-linecap:round;stroke-linejoin:round;stroke-miterlimit:10;}
	.st27{fill:#383838;}
	.st28{fill:none;stroke:#3F0E1B;stroke-width:1.0468;stroke-linecap:round;stroke-linejoin:round;stroke-miterlimit:10;}
	.st29{fill:#FCB390;}
	.st30{fill:#8A3334;}
	.st31{clip-path:url(#SVGID_8_);}
	.st32{fill:#943B42;}
	.st33{fill:#7B2A2D;}
	.st34{fill:#B6494D;}
	.st35{fill:#6F3800;}
	.st36{clip-path:url(#SVGID_10_);fill:#FFFFFF;}
	.st37{clip-path:url(#SVGID_10_);}
	.st38{fill:url(#SVGID_11_);}
	.st39{fill:url(#SVGID_12_);}
	.st40{opacity:0.45;fill:#F3A285;}
	.st41{fill:none;stroke:#F68D6C;stroke-width:0.9361;stroke-linecap:round;stroke-linejoin:round;stroke-miterlimit:10;}
	.st42{fill:none;stroke:#8E2609;stroke-linecap:round;stroke-linejoin:round;stroke-miterlimit:10;}
	.st43{fill:#F3A285;}
	.st44{fill:#8A9949;}
	.st45{opacity:0.3;fill:#D44747;}
	.st46{fill:#8E2609;}
	.st47{fill:#791904;}
	.st48{fill:#7B8436;}
	.st49{fill:#747D37;}
	.st50{clip-path:url(#SVGID_14_);fill:#FFFFFF;}
	.st51{clip-path:url(#SVGID_14_);}
	.st52{fill:#FF7869;}
	.st53{opacity:0.45;}
	.st54{fill:#F5665C;}
	.st55{fill:#FFBDB5;}
	.st56{fill:#3F0E1B;}
	.st57{fill:#340A16;}
	.st58{fill:#E7927A;}
	.st59{opacity:0.45;fill:#EA8569;}
	.st60{fill:#721F10;}
</style>
<g class="st0">
	<g class="st1">
		<defs>
			<circle id="SVGID_1_" cx="50" cy="50" r="50"/>
		</defs>
		<clipPath id="SVGID_2_">
			<use xlink:href="#SVGID_1_"  style="overflow:visible;"/>
		</clipPath>
		<circle class="st2" cx="50" cy="50" r="50"/>
		<g class="st3">
			<path class="st4" d="M74.9,71.4c-1.8,4.8-5.8,10.5-9.2,13.6c-0.1,0.1-5.6,4.9-5.8,4.9c-4.3,3.5-9.5,5.7-15.3,4.9
				c-0.5-0.1-0.9-0.2-1.4-0.3c-1.4-0.5-2.9-1.3-4.3-2.3c0,0-0.1-0.1-0.1-0.1c-1.4-1.1-2.8-2.4-4.1-3.9c-0.1-0.1-0.2-0.2-0.2-0.3
				c-1.8-2-3.4-4.2-4.8-6.1c-0.3-0.4-0.6-0.9-0.9-1.3c-0.1-0.1-0.1-0.1-0.1-0.2c-0.4-0.6-0.7-1.1-1-1.6c-0.5-0.7-0.8-1.3-1.1-1.8
				c-0.2-0.4-0.4-0.7-0.6-1.1c-2.4-5.3-2.8-11.6-3-17.3c-0.2-5.7-0.3-11.4,0.4-17.1c0.8-7.1,2.9-14.5,7.8-20c3-3.3,7-6.5,11.5-7.6
				c1.3-0.3,2.9-0.5,4.1,0.3c3.8-2.5,9.3-0.9,13,1c11.5,5.7,14.9,18.7,16.5,30.4c0.8,6.2,1.1,12.6,0.4,18.9
				C76.3,66.9,75.7,69.2,74.9,71.4z"/>
			<g>
				<path class="st5" d="M71,73.4c-2.9,4.9-11.4,17.1-23.5,15.3c-12.7-2-15.1-12.7-15.6-15.9c0.2-0.1,0.3-0.1,0.3-0.1
					C47.3,66.2,61.2,69.1,71,73.4z"/>
			</g>
			<g>
				<path class="st6" d="M62.7,70.1L62.7,70.1c-0.1,0.3-1.7,6.9-11.6,7.4c-0.1,0-0.2,0-0.2,0h-0.5c-0.1,0-0.2,0-0.2,0
					c-9.8-0.5-11.6-7.3-11.6-7.6c0,0,0,0,0,0c1-0.2,1.9-0.4,2.4-0.5c0.1,0,0.2,0,0.3-0.1c0.8-0.2,1.1-4.3,1.3-8
					c0.1-2,0.1-3.8,0.1-4.9c0-0.6,0-1,0-1l2.2-0.4l8.6-1.5l4.4,1.9c0,0,0,2.4,0.1,5.2c0.1,3.9,0.4,8.6,1.3,8.7
					c0.3,0.1,0.6,0.1,1.1,0.2C61,69.7,61.8,69.9,62.7,70.1z"/>
				<path class="st6" d="M67,44.7c0.2,2.7-2,5.8-3.7,6c-1.7,0.1-3.6-0.9-2.7-3.9c0.8-2.5,1-5,2.8-5.2C65.1,41.4,66.7,42,67,44.7z"/>
				<path class="st6" d="M31,44.8c-0.3,2.7,1.8,5.9,3.6,6.1c1.7,0.2,3.6-0.8,2.8-3.9c-0.7-2.5-0.9-5.1-2.6-5.3
					C33,41.6,31.3,42.1,31,44.8z"/>
				<path class="st7" d="M57.9,61.3c-2.1,1.9-4.7,3.1-7.5,3.3c-2.8,0.2-5.5-0.8-7.9-2.6c0.1-2,0.1-3.8,0.1-4.9l2.2-1.4l8.6-1.5
					l4.4,1.9C57.9,56.2,57.8,58.5,57.9,61.3z"/>
				<path class="st8" d="M63.2,41.6c0,0.6,0,1.3-0.1,2c0,0.5-0.1,1.1-0.2,1.7c-0.1,1.3-0.4,2.7-0.7,4.1c-0.1,0.3-0.2,0.7-0.3,1
					c0,0,0,0.1,0,0.1c-0.1,0.2-0.1,0.5-0.2,0.7c-0.8,2.5-2,4.9-3.9,7c0,0,0,0,0,0c-1.6,1.8-3.7,3.4-6.4,4.5
					c-1.5,0.6-3.2,0.6-4.7-0.1c-1.5-0.6-2.9-1.5-4.1-2.5c0,0,0,0,0,0c-2.9-2.3-5.2-5.3-6.2-8.3c-0.1-0.3-0.2-0.7-0.3-1
					c0-0.1,0-0.1,0-0.1c-0.1-0.2-0.1-0.4-0.2-0.7c-0.1-0.3-0.1-0.7-0.2-1c-0.1-0.6-0.2-1.2-0.3-1.7c-0.1-0.7-0.2-1.4-0.2-2.1
					c0-0.5-0.1-1.1-0.1-1.6c0-0.6,0-1.2,0-1.8c0-1,0.1-1.9,0.1-2.5c0-0.3,0.1-0.6,0.1-0.7c0-0.1,0-0.2,0-0.2L36,32l0.8-0.5l6.3-4.5
					l2.7-1.9c0,0,2.1-0.1,4.4,0.1c1.1,0.1,2.2,0.3,3.2,0.6c1.3,0.4,2.4,0.9,2.9,1.7l1,0.9l4.1,3.6l0.5,1.6l1.2,3.9l0.1,0.2
					C63.1,37.8,63.3,39.3,63.2,41.6z"/>
				<path class="st9" d="M40.1,44.8c0.1,0.8,0.7,1.3,1.2,1.2c0.5-0.1,0.9-0.8,0.7-1.6c-0.1-0.8-0.7-1.3-1.2-1.2
					C40.3,43.3,40,44,40.1,44.8z"/>
				<path class="st9" d="M55.6,44.5c0,0.8,0.4,1.4,1,1.4c0.6,0,1-0.6,1-1.4c0-0.8-0.4-1.4-1-1.4C56,43.1,55.6,43.7,55.6,44.5z"/>
				<path class="st10" d="M60.7,39.5C58,38.7,55.9,39,54,40.2l-0.1,0C54.7,38.6,58.6,38.6,60.7,39.5"/>
				<path class="st10" d="M37.1,40.1c2-0.9,4.8-1.5,6.6-0.2l-0.1,0C41.5,39.1,39.1,39.5,37.1,40.1"/>
				<path class="st11" d="M49.3,55.2c1.2-0.1,2.3-0.3,3.2-0.6c0.1,0.2,0.1,0.5,0.1,0.7c0.1,2.1-1.3,3.9-3.2,4
					c-1.9,0.1-3.5-1.5-3.6-3.6c0-0.3,0-0.5,0-0.8C46.7,55.2,48,55.3,49.3,55.2z"/>
				<path class="st12" d="M48.5,43.9c0,0,0,4.2-1.7,6.2c0,0,0.7,0.6,2,1.3"/>
				<path class="st6" d="M44.2,51.4c0,1.1-1.4,2.1-3.2,2.1c-1.8,0.1-3.3-0.8-3.3-1.9s1.4-2.1,3.2-2.1C42.7,49.5,44.1,50.3,44.2,51.4
					z"/>
				<path class="st6" d="M61.4,50.7c0,1.1-1.4,2.1-3.2,2.1c-1.8,0.1-3.2-0.8-3.3-1.9c0-1.1,1.4-2.1,3.2-2.1
					C59.9,48.7,61.3,49.6,61.4,50.7z"/>
			</g>
			<g>
				<path class="st6" d="M61.8,33.7c-0.1,0.1-0.2,0.2-0.3,0.3c-0.1,0.2-0.2,0.5-0.3,0.7c-0.3,0.7-0.8,2.7-1.5,3.1
					c-0.5,0.3-2.1,0-2.8,0c-0.6,0-1.4,0.1-2,0c-0.5-0.1-0.7-0.2-0.9-0.5c-0.1-0.2-0.2-0.4-0.3-0.8c-0.9-2.7-1.3-5.5-1.1-8.4
					c-0.3,1.1-0.5,2.2-0.8,3.4c-0.1,0.5-0.2,1.1-0.3,1.6c-0.2,1-0.3,4.2-1,4.7c-0.4,0.3-2,0-2.4,0c-0.8,0-1.5,0.2-2-0.4c0,0,0,0,0,0
					c-0.5-0.6-0.5-2.1-0.5-2.9c0-0.3,0-0.6-0.2-0.7c-0.2,0.4-0.4,0.8-0.6,1.2c-0.1,0.2-0.1,0.3-0.2,0.5c-0.2,0.5-0.3,1.6-0.6,2
					c-0.6,0.7-2.5,0.5-3.5,0.6c-0.7,0.1-1.3,0.2-2,0.3c-1.4,0.4-2.5,0.7-3.3,0.9c0-0.3,0.1-0.6,0.1-0.7c0-0.1,0-0.2,0-0.2L36,32
					l0.8-0.5l6.3-4.5l2.7-1.9c0,0,2.1-0.1,4.4,0.1c1.1,0.1,2.2,0.3,3.2,0.6c1.3,0.4,2.4,0.9,2.9,1.7l1,0.9l4.1,3.6L61.8,33.7z"/>
				<path class="st4" d="M65.8,36.2c-0.4,0.6-1.6,1.3-2.5,1.4c-0.1,0-0.1,0-0.2,0c-0.1,0-0.3-0.1-0.4-0.1c-0.3-0.2-0.4-0.8-0.5-1.1
					c-0.1-0.3-0.3-0.7-0.3-1c-0.1-0.4-0.2-0.9-0.3-1.3c-0.1-0.3-0.2-0.7-0.4-0.9c-0.4,0.2-0.6,0.7-0.8,1.2c-0.3,0.7-0.8,2.7-1.5,3.1
					c-0.5,0.3-2.1,0-2.8,0c-0.6,0-1.4,0.1-2,0c0,0,0,0,0,0c-0.9-0.2-0.8-0.3-1.1-1.3c-0.5-1.5-0.9-3-1-4.5c-0.1-1.3-0.2-2.5-0.1-3.8
					c-0.4,1.6-0.8,3.3-1.1,4.9c-0.2,1-0.3,4.2-1,4.7c-0.4,0.3-2,0-2.4,0c-0.4,0-0.8,0.1-1.2,0c-0.3,0-0.6-0.1-0.8-0.4
					c-0.3-0.4-0.5-1.2-0.5-1.9c0-0.4,0-0.7,0-1c0-0.3,0-0.6-0.2-0.7c-0.3,0.6-0.6,1.1-0.8,1.7c-0.2,0.5-0.3,1.6-0.6,2
					c-0.6,0.7-2.5,0.5-3.5,0.6c-0.7,0.1-1.3,0.1-2,0.3c-0.9,0.2-1.7,0.5-2.4,0.6c-1.5,0.4-2.5,0.7-3.1,0.9c-0.7,0.2-0.9,0.3-1,0.3
					c0-0.2,1.1-6.3,1.9-9.7c0.8-3.4,11.9-9.3,16-9.4c2.3-0.1,7.2,1.9,11,4c0,0,0.1,0,0.1,0c0.7,0.4,1.4,0.8,2,1.2c0,0,0,0,0,0
					c1.8,1.1,3,2.2,3,3c0,0.4,0.4,0.9,0.5,1.3c0.3,1,0.6,2,0.6,3C66.4,34.2,66.3,35.4,65.8,36.2z"/>
				<path class="st13" d="M50.4,24.7c0,0-2.9,6.8-1.9,11.9"/>
				<path class="st13" d="M53.3,25.5c0,0,0.2,7.8,1.2,10.7"/>
				<path class="st13" d="M63.4,36.4c0.2-2.7-1-9-1.2-10.4c0,0,0,0,0,0c0,0,0-0.1,0-0.1c0-0.1,0-0.2,0-0.2"/>
				<path class="st13" d="M57.3,25.3c0,0-0.5,6.2,0.5,10.6"/>
				<path class="st13" d="M44.1,24.2c0,0-2.9,7.8-3,11.8"/>
				<path class="st13" d="M39,25c0,0-2.9,6.3-2.7,11.4"/>
			</g>
			<path class="st14" d="M85.3,95.8l-34.5,10l-35.4-10c0.6-15,6-20.7,11.3-22.7c3.8-1.4,8.9-2.7,12-3.4c0,0,0,0,0,0
				c0.1,0.3,1.8,7.1,11.6,7.6c0.1,0,0.2,0,0.2,0H51c0.1,0,0.2,0,0.2,0c9.8-0.5,11.5-7.1,11.5-7.4v0c3.2,0.7,7.7,1.9,11.2,3.2
				C79.3,75.1,84.7,80.8,85.3,95.8z"/>
			<g>
				<g>
					<path class="st15" d="M-15.5,82.3c0.6,0,0.6-1,0-1C-16.2,81.3-16.2,82.3-15.5,82.3L-15.5,82.3z"/>
				</g>
			</g>
			<g>
				<g>
					<g>
						<path class="st16" d="M36.3,72.2c0,0.9,0.7,1.8,1.2,2.6c0.6,0.8,1.3,1.5,2.1,2.2c1.6,1.3,3.6,2.3,5.6,2.8
							c4.1,1.2,8.5,0.8,12.3-1.1c2.1-1,4-2.5,5.4-4.3c0.2-0.3-0.1-0.6-0.4-0.4c-2.5,2.9-5.9,5-9.8,5.7c-4.1,0.7-8.5-0.2-12-2.5
							c-0.9-0.6-1.7-1.3-2.5-2.2c-0.4-0.4-0.7-0.9-1-1.4c-0.3-0.5-0.5-1-0.8-1.5C36.6,72,36.3,72,36.3,72.2L36.3,72.2z"/>
					</g>
				</g>
				<g>
					<g>
						<path class="st16" d="M69,75.5c0.2,0.5,0.4,0.9,0.7,1.3c0.3,0.4,0.6,0.8,1.1,1c0.1,0,0.2,0.1,0.3,0c0.1-0.1,0.1-0.1,0.2-0.2
							c0-0.1,0-0.2-0.1-0.3c-0.3-0.3-0.6-0.6-0.9-0.9c0,0,0-0.1,0,0c0,0,0,0,0,0c0,0-0.1-0.1-0.1-0.1c-0.1-0.1-0.1-0.2-0.2-0.3
							c-0.1-0.2-0.2-0.4-0.3-0.6C69.4,74.9,68.9,75.1,69,75.5L69,75.5z"/>
					</g>
				</g>
				<g>
					<g>
						<path class="st16" d="M69.1,77c0.2-0.1,0.4-0.3,0.6-0.4c0.2-0.2,0.4-0.3,0.6-0.5c0.2-0.1,0.4-0.3,0.5-0.4
							c0.1-0.1,0.2-0.2,0.3-0.3c0,0,0.1-0.1,0.1-0.2c0,0,0-0.1,0.1-0.1c0.1-0.2,0-0.4-0.2-0.3c0,0-0.1,0-0.1,0c0,0-0.1,0,0,0
							c0,0-0.1,0-0.1,0c0,0,0,0-0.1,0.1c-0.1,0.1-0.2,0.1-0.3,0.2c-0.2,0.1-0.4,0.3-0.6,0.5c-0.2,0.1-0.4,0.3-0.5,0.4
							c-0.2,0.2-0.4,0.3-0.5,0.5C68.5,76.8,68.8,77.2,69.1,77L69.1,77z"/>
					</g>
				</g>
				<g>
					<g>
						<path class="st16" d="M55.1,89.1c0.2,0.4,0.3,0.8,0.5,1.2c0.1,0.2,0.2,0.4,0.3,0.5c0.1,0.1,0.3,0.4,0.5,0.3
							c0.2-0.1,0.1-0.4,0-0.6c-0.1-0.2-0.1-0.4-0.2-0.6c-0.2-0.4-0.4-0.8-0.6-1.2c-0.1-0.2-0.3-0.2-0.4-0.1
							C55.1,88.8,55,88.9,55.1,89.1L55.1,89.1z"/>
					</g>
				</g>
				<g>
					<g>
						<path class="st16" d="M54.9,90.3c0.2,0,0.3-0.1,0.4-0.2c0.1-0.1,0.3-0.1,0.4-0.2c0.1-0.1,0.3-0.1,0.4-0.2
							c0.1-0.1,0.3-0.1,0.4-0.3c0.1-0.1,0.1-0.2,0.1-0.4c0-0.1-0.2-0.2-0.3-0.2c-0.2,0-0.3,0.1-0.5,0.2c-0.1,0.1-0.3,0.1-0.4,0.2
							c-0.1,0.1-0.2,0.1-0.4,0.2c-0.1,0.1-0.2,0.1-0.4,0.2c-0.1,0.1-0.2,0.2-0.1,0.4C54.6,90.3,54.8,90.4,54.9,90.3L54.9,90.3z"/>
					</g>
				</g>
				<g>
					<g>
						<path class="st16" d="M34.6,80.9c0.2,0.4,0.4,0.9,0.5,1.3c0.1,0.2,0.1,0.5,0.2,0.7c0,0.1,0.1,0.2,0.1,0.3
							c0,0.1,0.1,0.2,0.2,0.3c0.1,0,0.1,0,0.2,0c0.1-0.2,0.1-0.5,0.1-0.7c0-0.2-0.1-0.5-0.2-0.7c-0.1-0.5-0.4-0.9-0.7-1.4
							C34.8,80.5,34.5,80.7,34.6,80.9L34.6,80.9z"/>
					</g>
				</g>
				<g>
					<g>
						<path class="st16" d="M34.1,82.8c0.1-0.1,0.2-0.2,0.4-0.2c0.1,0,0.1-0.1,0.2-0.1c0,0,0,0,0,0c0,0,0,0,0.1,0c0,0,0.1,0,0.1,0
							c0.1,0,0.3-0.1,0.4-0.1c0.2,0,0.3-0.1,0.4-0.2c0.1-0.1,0.1-0.3,0-0.3c-0.1,0-0.2-0.1-0.3-0.1c-0.1,0-0.2,0-0.3,0
							c-0.2,0-0.3,0.1-0.5,0.1c-0.3,0.1-0.6,0.3-0.9,0.5c-0.1,0.1-0.1,0.2,0,0.3C33.9,82.8,34,82.9,34.1,82.8L34.1,82.8z"/>
					</g>
				</g>
				<g>
					<g>
						<path class="st16" d="M24.2,77.4c0.2,0.4,0.4,0.8,0.5,1.3c0.1,0.2,0.1,0.4,0.2,0.7c0.1,0.2,0.1,0.5,0.2,0.6
							c0.1,0.1,0.2,0.1,0.2,0c0.1-0.2,0.1-0.5,0-0.7c0-0.2-0.1-0.5-0.1-0.7c-0.1-0.5-0.4-0.9-0.6-1.4C24.5,76.8,24.1,77.1,24.2,77.4
							L24.2,77.4z"/>
					</g>
				</g>
				<g>
					<g>
						<path class="st16" d="M24.1,79.4c0.6-0.2,1.1-0.5,1.6-0.7c0.3-0.1,0.5-0.3,0.8-0.4c0.1-0.1,0.2-0.1,0.4-0.2
							c0.1-0.1,0.3-0.1,0.3-0.3c0.1-0.1,0-0.3-0.2-0.3c-0.2,0-0.3,0.1-0.4,0.1c-0.1,0.1-0.3,0.1-0.4,0.2c-0.3,0.1-0.5,0.2-0.8,0.4
							c-0.5,0.3-1,0.5-1.5,0.8C23.8,79.1,23.9,79.5,24.1,79.4L24.1,79.4z"/>
					</g>
				</g>
				<g>
					<g>
						<path class="st16" d="M40.7,91.6c0.1,0.3,0.2,0.7,0.3,1c0.1,0.2,0.1,0.3,0.2,0.5c0.1,0.2,0.2,0.3,0.2,0.5
							c0.1,0.1,0.2,0.1,0.2-0.1c0-0.2,0-0.4-0.1-0.6c0-0.2-0.1-0.3-0.1-0.5c-0.1-0.3-0.2-0.7-0.3-1C41,91.3,40.7,91.4,40.7,91.6
							L40.7,91.6z"/>
					</g>
				</g>
				<g>
					<g>
						<path class="st16" d="M40.1,92.7c0.3-0.1,0.6-0.1,0.9-0.2c0.2,0,0.3-0.1,0.5-0.1c0.1,0,0.2,0,0.2,0c0,0,0.1,0,0.1-0.1
							c0,0,0.1,0,0.1-0.1c0.2-0.1,0.2-0.3,0-0.3c0,0-0.1,0-0.1,0c0,0-0.1,0-0.1,0c-0.1,0-0.2,0-0.2,0c-0.2,0-0.3,0.1-0.5,0.1
							c-0.3,0.1-0.6,0.1-1,0.2c-0.1,0-0.2,0.2-0.2,0.3C39.8,92.7,40,92.7,40.1,92.7L40.1,92.7z"/>
					</g>
				</g>
				<g>
					<g>
						<path class="st16" d="M66.7,90.9c0.1,0.4,0.2,0.8,0.3,1.3c0.1,0.2,0.1,0.4,0.2,0.6c0.1,0.2,0.2,0.5,0.4,0.5
							c0.3-0.1,0.2-0.4,0.2-0.6c0-0.2-0.1-0.4-0.1-0.7c-0.1-0.4-0.2-0.8-0.3-1.3c0-0.2-0.2-0.3-0.4-0.2
							C66.8,90.5,66.7,90.7,66.7,90.9L66.7,90.9z"/>
					</g>
				</g>
				<g>
					<g>
						<path class="st16" d="M66.2,92.2c0.4-0.1,0.8-0.2,1.2-0.3c0.2,0,0.4-0.1,0.6-0.1c0.1,0,0.2-0.1,0.3-0.1c0,0,0.1,0,0.1,0
							c0.1,0,0.1-0.1,0.2-0.1c0.1-0.1,0.1-0.4-0.1-0.4c-0.2-0.1-0.4,0-0.7,0.1c-0.2,0-0.4,0.1-0.6,0.1c-0.4,0.1-0.8,0.2-1.2,0.3
							c-0.2,0-0.2,0.2-0.2,0.4C65.9,92.2,66,92.3,66.2,92.2L66.2,92.2z"/>
					</g>
				</g>
				<g>
					<g>
						<path class="st16" d="M28,90.2c0,0.4,0.1,0.7,0.2,1c0.1,0.2,0.1,0.3,0.3,0.5c0.1,0.1,0.1,0.1,0.2,0.2c0.1,0.1,0.2,0.1,0.3,0.1
							c0.1,0,0.1,0,0.1-0.1c0-0.1,0-0.2,0-0.3c0,0,0-0.1,0-0.1c0-0.1,0-0.1,0-0.2c0-0.1-0.1-0.3-0.1-0.4c0-0.1-0.1-0.3-0.1-0.4
							c0-0.1,0-0.2,0-0.2c0,0,0-0.1,0-0.1c0,0.1,0,0,0-0.1c0-0.2-0.1-0.3-0.3-0.3C28.1,89.9,28,90,28,90.2L28,90.2z"/>
					</g>
				</g>
				<g>
					<g>
						<path class="st16" d="M27.6,91.6c0.3-0.1,0.6-0.1,0.9-0.2c0.1,0,0.3-0.1,0.4-0.1c0.1,0,0.3-0.1,0.4-0.2c0,0-0.1,0-0.1,0
							c0.1,0,0.1,0,0.2-0.1c0.2-0.1,0.1-0.3,0-0.3c-0.1,0-0.1,0-0.2,0c0,0,0.1,0,0.1,0c-0.1-0.1-0.3,0-0.5,0c-0.2,0-0.3,0.1-0.5,0.1
							c-0.3,0.1-0.6,0.1-0.9,0.2c-0.1,0-0.2,0.2-0.2,0.3C27.4,91.5,27.5,91.6,27.6,91.6L27.6,91.6z"/>
					</g>
				</g>
				<g>
					<g>
						<path class="st16" d="M49.6,97.7c0,0.4,0.2,0.8,0.3,1.2c0.1,0.2,0.1,0.4,0.2,0.6c0.1,0.2,0.2,0.4,0.3,0.5
							c0.1,0.1,0.2,0,0.2-0.1c0-0.2,0-0.4,0-0.6c0-0.2-0.1-0.4-0.2-0.6c-0.1-0.4-0.2-0.8-0.4-1.2C49.9,97.4,49.5,97.5,49.6,97.7
							L49.6,97.7z"/>
					</g>
				</g>
				<g>
					<g>
						<path class="st16" d="M48.9,98.7c0.3-0.2,0.6-0.4,1-0.4c0.2,0,0.3-0.1,0.5-0.1c0.2,0,0.4-0.1,0.6-0.1c0.2,0,0.2-0.3,0-0.4
							c-0.2-0.1-0.4-0.1-0.6-0.1c-0.2,0-0.4,0-0.7,0.1c-0.4,0.1-0.8,0.3-1.2,0.6c-0.1,0.1-0.1,0.3,0,0.4
							C48.6,98.8,48.7,98.8,48.9,98.7L48.9,98.7z"/>
					</g>
				</g>
				<g>
					<g>
						<path class="st16" d="M75.5,82.5c0.1,0.3,0.2,0.6,0.4,0.9c0.1,0.1,0.1,0.3,0.2,0.4c0,0.1,0.1,0.1,0.2,0.2
							c0.1,0.1,0.1,0.1,0.2,0.1c0,0,0.1,0,0.1,0c0-0.1,0-0.1,0-0.2c0-0.1,0-0.2-0.1-0.2c-0.1-0.2-0.1-0.3-0.2-0.5
							c-0.1-0.3-0.3-0.6-0.4-0.9c-0.1-0.1-0.2-0.2-0.3-0.1C75.4,82.2,75.4,82.4,75.5,82.5L75.5,82.5z"/>
					</g>
				</g>
				<g>
					<g>
						<path class="st16" d="M75.2,83.7c0.3-0.1,0.6-0.2,0.9-0.3c0.1,0,0.3-0.1,0.4-0.2c0.1,0,0.2-0.1,0.2-0.1c0.1,0,0.1-0.1,0.2-0.2
							c0.1-0.1,0.1-0.2-0.1-0.3c-0.1,0-0.2,0-0.2,0c-0.1,0-0.2,0-0.3,0.1c-0.1,0-0.3,0.1-0.4,0.1c-0.3,0.1-0.6,0.2-0.9,0.3
							c-0.1,0-0.2,0.2-0.2,0.3C74.9,83.7,75,83.8,75.2,83.7L75.2,83.7z"/>
					</g>
				</g>
			</g>
		</g>
	</g>
</g>
<g>
	<g>
		<defs>
			<circle id="SVGID_3_" cx="50" cy="50" r="50"/>
		</defs>
		<clipPath id="SVGID_4_">
			<use xlink:href="#SVGID_3_"  style="overflow:visible;"/>
		</clipPath>
		<circle class="st17" cx="50" cy="50" r="50"/>
		<g class="st18">
			<g>
				<path class="st19" d="M68.8,34.9c-0.1-0.4-0.2-0.9-0.4-1.3c-0.2-0.5-0.3-0.9-0.5-1.3c-0.2-0.4-0.4-0.8-0.6-1.2
					c-0.2-0.3-0.3-0.6-0.5-0.9c-1.2-1.6-2.5-1.4-4-2.7c-0.9-0.7-1.9-1.4-2.9-1.8c-1.1-0.3-2.4-0.2-3.2,0.7l-6.9,1.4l-6.9-1.4
					c-0.8-0.9-2.1-1-3.2-0.7c-1.1,0.3-2,1-2.9,1.8c-1.5,1.2-2.9,1-4,2.7c-0.2,0.3-0.4,0.6-0.5,0.9c-0.2,0.4-0.4,0.8-0.6,1.2
					c-0.2,0.4-0.4,0.9-0.5,1.3c-0.2,0.4-0.3,0.9-0.4,1.3c-0.1,0.4-0.2,0.8-0.2,1.2c0,0.2,0,0.3,0,0.5c0,0.2,0.1,0.6,0.3,0.5
					c0.1,0,0.2-0.1,0.3-0.2c0.1-0.1,0.1-0.2,0.2-0.3c0-0.1,0-0.1,0.1-0.2c0,0,0-0.1,0-0.2c-0.4,2.6-0.1,5.3,0.8,7.7
					c0.2,0.6,0.5,1.2,1,1.6c0.5,0.4,1.1,0.6,1.7,0.3c0,0,0.1,0,0.1-0.1c0.1,0,0.2,0.1,0.3,0.1c0.6,0.2,1,0.9,1.6,1.3
					c0.3,0.2,0.6,0.4,0.9,0.6c0.2,0.1,0.7,0.2,0.9,0.4c-0.4-0.4-0.2-1.2,0.3-1.5c0.5-0.3,1.1-0.2,1.7,0c0.5,0.2,1,0.5,1.6,0.7
					c0.6,0.2,1.2,0.2,1.8,0.1c1.1,0.2,2.3,0.1,3.4,0c0.8-0.1,1.7-0.2,2.5-0.3c0.8,0.1,1.7,0.2,2.5,0.3c1.1,0.1,2.3,0.2,3.4,0
					c0.6,0.1,1.2,0.1,1.8-0.1c0.5-0.2,1-0.5,1.6-0.7c0.5-0.2,1.2-0.3,1.7,0c0.5,0.3,0.7,1.1,0.3,1.5c0.2-0.2,0.6-0.3,0.9-0.4
					c0.3-0.2,0.6-0.4,0.9-0.6c0.5-0.4,0.9-1.1,1.6-1.3c0.1,0,0.2-0.1,0.3-0.1c0,0,0.1,0,0.1,0.1c0.5,0.3,1.2,0.1,1.7-0.3
					c0.5-0.4,0.7-1,1-1.6c1-2.4,1.3-5.1,0.8-7.7c0,0,0,0.1,0,0.2c0,0.1,0,0.1,0.1,0.2c0,0.1,0.1,0.2,0.2,0.3
					c0.1,0.1,0.2,0.2,0.3,0.2c0.3,0.1,0.3-0.4,0.3-0.5c0-0.2,0-0.3,0-0.5C69,35.7,68.9,35.3,68.8,34.9z"/>
			</g>
			<g>
				<g>
					<path class="st20" d="M68.2,73.9l-18.3,6l-17.2-6.5c0,0,8-3,8.2-3.1c0.2-0.6,0.6-2.2,0.6-6.6c0-0.6,0-1.3,0-2h17c0,1,0,2,0,2.8
						c0,3.9,0.4,5.4,0.6,5.9C59.3,70.3,68.2,73.9,68.2,73.9z"/>
					<g>
						<path class="st21" d="M64.9,44.7c0,0,2.7-1.2,4.4,1c1.6,2.1-1.6,9.1-7,6.8"/>
						
							<linearGradient id="SVGID_5_" gradientUnits="userSpaceOnUse" x1="-73.0765" y1="17.5028" x2="-67.4986" y2="17.5028" gradientTransform="matrix(0.9466 0.3224 -0.3224 0.9466 139.653 55.4767)">
							<stop  offset="0" style="stop-color:#FDA889"/>
							<stop  offset="1" style="stop-color:#FDA889;stop-opacity:0"/>
						</linearGradient>
						<path class="st22" d="M64.9,44.7c0,0,2.7-1.2,4.4,1c1.6,2.1-1.6,9.1-7,6.8"/>
					</g>
					<g>
						<path class="st21" d="M35,44.9c0,0-2.6-1.5-4.4,0.5c-1.9,1.9,0.5,9.2,6.2,7.6"/>
						
							<linearGradient id="SVGID_6_" gradientUnits="userSpaceOnUse" x1="115.9307" y1="93.1062" x2="111.2936" y2="93.1657" gradientTransform="matrix(0.9775 -0.211 0.211 0.9775 -97.8183 -17.9982)">
							<stop  offset="0" style="stop-color:#FDA889"/>
							<stop  offset="1" style="stop-color:#FDA889;stop-opacity:0"/>
						</linearGradient>
						<path class="st23" d="M35,44.9c0,0-2.6-1.5-4.4,0.5c-1.9,1.9,0.5,9.2,6.2,7.6"/>
					</g>
					<path class="st24" d="M58.5,64.3c-2.2,2.2-4.8,3.6-8,3.6c-3.7,0-6.6-1.8-9-4.4c0-0.6,0-1.3,0-2h17
						C58.5,62.6,58.5,63.5,58.5,64.3z"/>
					<path class="st25" d="M65,33.3c-2.5-10.5-15.1-8.8-15.1-8.8s-12.7-1.7-15.1,8.8c0,0-1.3,12.1,0.6,18.6
						c1.9,6.5,6.7,14.8,14.6,14.8S62.4,58,64.3,51.5C66.2,45,65,33.3,65,33.3z"/>
					<g>
						<path class="st26" d="M50.2,46.2c0,0-0.1,4-1.8,5.8c0,0,0.7,0.6,1.8,1.3"/>
						<path class="st27" d="M42.4,47.7c0.1,0.8,0.6,1.4,1.2,1.4c0.6-0.1,1-0.8,0.9-1.6c-0.1-0.8-0.6-1.4-1.2-1.4
							C42.8,46.2,42.4,46.9,42.4,47.7z"/>
						<path class="st28" d="M45.8,43.1c0,0-4.6-1.5-7.4,0.4C38.4,43.5,41.5,40.7,45.8,43.1z"/>
						<path class="st29" d="M43.7,53.4c-0.1,1.1-1.6,2-3.4,1.9c-1.8-0.1-3.2-1.1-3.2-2.3c0.1-1.1,1.6-2,3.4-1.9
							C42.4,51.3,43.8,52.3,43.7,53.4z"/>
						<path class="st27" d="M57.5,47.7c-0.1,0.8-0.6,1.4-1.1,1.4c-0.6,0-1-0.7-0.9-1.5s0.6-1.4,1.1-1.4
							C57.1,46.2,57.5,46.9,57.5,47.7z"/>
						<path class="st28" d="M54.4,42.9c0,0,4.6-1.3,7.3,0.7C61.7,43.6,58.7,40.6,54.4,42.9z"/>
						<path class="st29" d="M55.7,53.6c0.1,1.1,1.7,1.9,3.5,1.8c1.8-0.2,3.2-1.2,3.1-2.4c-0.1-1.1-1.7-1.9-3.5-1.8
							C57,51.4,55.6,52.5,55.7,53.6z"/>
					</g>
				</g>
				<path class="st24" d="M37.2,71.6l12.5,2.8c0,0,8.3-0.7,13.2-2.7c2.5,2.8,3.3,3.6,3.3,3.6l-13.7,7.1L43.3,82l-9.8-7.8L37.2,71.6z
					"/>
				<g>
					<g>
						<path class="st30" d="M82.6,77.4c0,0-4.5,16.6-7.1,28.8H23.9c-2.6-12.2-7.1-28.8-7.1-28.8L34,72.5l3.2-0.9
							c3.3,2.5,7.2,4,11.1,4.3l1.7,0.7l1.7-0.6h0c3.8-0.3,7.4-1.6,10.7-3.8l0.4-0.3l3.9,1.1L82.6,77.4z"/>
					</g>
				</g>
				<path class="st30" d="M24.5,106.2c0.2-1,0.4-1.6,0.4-1.6L17,77.4c0,0-4.8,1.4-7.7,13c-4.1,12.3-4.7,15.3-4.7,15.3
					s0.1,0.2,0.3,0.6H24.5z"/>
				<path class="st30" d="M95.4,106.2c-0.4-1.5-1.9-6.2-5.1-15.9c-2.9-11.6-7.8-12.9-7.8-12.9l-7.8,27.2c0,0,0.1,0.6,0.3,1.6H95.4z"
					/>
				<g>
					<defs>
						<path id="SVGID_7_" d="M75.1,106.2h20.3c-0.4-1.5-1.9-6.2-5.1-15.9c-2.9-11.5-7.7-12.9-7.8-12.9l0,0l-15.8-4.5l-3.9-1.1
							l-0.4,0.3c-3.2,2.3-6.9,3.5-10.7,3.8h0l-1.7,0.6l-1.7-0.7c-4-0.3-7.8-1.8-11.1-4.3L34,72.5l-17.1,4.9c0,0,0,0,0,0
							c-0.8,0.3-4.9,2.5-7.6,12.9c-4.1,12.3-4.7,15.3-4.7,15.3s0.1,0.2,0.3,0.6h19.6c0,0,0,0,0,0L75.1,106.2
							C75.1,106.2,75.1,106.2,75.1,106.2z"/>
					</defs>
					<clipPath id="SVGID_8_">
						<use xlink:href="#SVGID_7_"  style="overflow:visible;"/>
					</clipPath>
					<g class="st31">
						<g>
							<path class="st32" d="M2.6,99c7-8.6,14.5-16.9,22.8-24.2c2.4-2.1,4.7-4.2,7.1-6.2c0.2-0.1-0.1-0.4-0.2-0.2
								c-4.4,3.4-8.5,7.2-12.5,11.2c-4,3.9-7.8,8-11.5,12.3C6.2,94.1,4.3,96.5,2.6,99C2.4,99,2.5,99.1,2.6,99L2.6,99z"/>
						</g>
					</g>
					<g class="st31">
						<g>
							<path class="st32" d="M11.5,102.4c0.6-1.5,1.5-2.8,2.4-4.1c0.9-1.3,1.8-2.6,2.8-3.9c1.9-2.6,3.8-5.3,5.8-7.8
								c3.9-5,8-9.8,12.3-14.5c2.4-2.6,4.9-5.2,7.3-7.9c0.1-0.1-0.1-0.3-0.2-0.2c-4.8,4.3-9.1,9.2-13.3,14.2
								c-4.2,4.9-8.1,10-11.9,15.2c-1.1,1.5-2.1,3-3.1,4.5c-0.9,1.4-1.9,2.8-2.4,4.5C11.2,102.5,11.4,102.5,11.5,102.4L11.5,102.4z"
								/>
						</g>
					</g>
					<g class="st31">
						<g>
							<path class="st32" d="M16.5,109.9C24.9,97.8,34,86.2,43.7,75.1c2.7-3.1,5.5-6.1,8.2-9.2c0.1-0.1-0.1-0.3-0.2-0.2
								c-5.2,5.2-10,10.9-14.7,16.5c-4.7,5.6-9.2,11.4-13.5,17.3c-2.5,3.4-4.9,6.8-7.2,10.3C16.2,109.9,16.4,110,16.5,109.9
								L16.5,109.9z"/>
						</g>
					</g>
					<g class="st31">
						<g>
							<path class="st32" d="M22.5,113.7c5.2-6.8,10.4-13.5,15.8-20.2c5.3-6.6,10.7-13,16.1-19.5c1.5-1.8,3.1-3.6,4.6-5.4
								c1.5-1.8,3.1-3.5,4.5-5.4c0.1-0.1-0.1-0.2-0.2-0.1c-1.5,1.5-2.9,3.1-4.3,4.7c-1.4,1.6-2.8,3.2-4.2,4.8
								c-2.7,3.2-5.4,6.4-8.1,9.7c-5.4,6.5-10.7,13.2-16,19.9c-2.9,3.7-5.7,7.5-8.6,11.2C22.1,113.7,22.3,113.8,22.5,113.7
								L22.5,113.7z"/>
						</g>
					</g>
					<g class="st31">
						<g>
							<path class="st32" d="M32.5,115c5-7,10.1-14,15.4-20.9c5.3-6.9,10.8-13.7,16.4-20.4c3.1-3.8,6.3-7.5,9.5-11.2
								c0.1-0.2-0.1-0.4-0.2-0.2c-5.8,6.5-11.5,13.2-16.9,20C51.3,89,46,95.9,40.9,102.8c-2.9,4-5.8,8-8.6,12
								C32.2,115,32.4,115.2,32.5,115L32.5,115z"/>
						</g>
					</g>
					<g class="st31">
						<g>
							<path class="st32" d="M41.4,117.2C46.7,110.1,52,103,57.4,96c5.4-6.9,11-13.6,16.9-20.1c3.3-3.6,6.8-7.2,10.2-10.7
								c0.1-0.1,0-0.2-0.1-0.1C77.9,70.9,72,77.6,66.3,84.3C60.6,91,55.2,97.9,50,105c-3,4-5.9,8-8.8,12.1
								C41.2,117.2,41.3,117.2,41.4,117.2L41.4,117.2z"/>
						</g>
					</g>
					<g class="st31">
						<g>
							<path class="st32" d="M51.9,117.3c2.7-4,5.6-7.9,8.3-11.8c2.6-3.6,5.1-7.2,7.7-10.8c5.2-7.2,10.6-14.3,16.5-21.1
								c1.6-1.9,3.3-3.8,5-5.6c1.7-1.8,3.5-3.6,5.2-5.5c0.1-0.1-0.1-0.3-0.2-0.2c-1.7,1.4-3.3,3.1-4.8,4.7c-1.6,1.6-3.1,3.3-4.6,5
								c-2.9,3.3-5.8,6.8-8.5,10.3c-5.5,7-10.7,14.3-15.8,21.6c-3.1,4.4-6.1,8.9-9.3,13.2C51.4,117.3,51.8,117.5,51.9,117.3
								L51.9,117.3z"/>
						</g>
					</g>
					<g class="st31">
						<g>
							<path class="st32" d="M67,113.5c2-3.3,4.2-6.5,6.4-9.7c2.1-3.2,4.3-6.4,6.5-9.6c4.4-6.4,9.1-12.6,14.2-18.5
								c2.8-3.3,5.8-6.5,8.8-9.6c0.1-0.1,0-0.2-0.1-0.1C97,71.1,92,77.1,87.3,83.1c-4.8,6.2-9.2,12.6-13.5,19.1
								c-2.4,3.7-4.7,7.4-7.2,11.1C66.5,113.5,66.8,113.8,67,113.5L67,113.5z"/>
						</g>
					</g>
					<g class="st31">
						<g>
							<path class="st32" d="M10.9,72.1c2.7,4.9,5.3,9.8,7.9,14.7c2.5,5,4.9,10,7.3,15c1.3,2.9,2.6,5.8,4,8.7c0.1,0.1,0.3,0,0.2-0.1
								c-2-5.2-4.3-10.2-6.7-15.2c-2.4-5.1-4.9-10.1-7.6-15c-1.5-2.8-3-5.6-4.6-8.3C11.2,71.7,10.8,71.9,10.9,72.1L10.9,72.1z"/>
						</g>
					</g>
					<g class="st31">
						<g>
							<path class="st32" d="M18.6,69.5c5.7,8.6,10.9,17.5,15.7,26.6c1.4,2.6,2.7,5.2,4,7.7c0.1,0.1,0.2,0,0.2-0.1
								c-4.3-9.3-9.3-18.4-14.8-27.1c-1.5-2.5-3.1-4.9-4.8-7.3C18.8,69.2,18.5,69.4,18.6,69.5L18.6,69.5z"/>
						</g>
					</g>
					<g class="st31">
						<g>
							<path class="st32" d="M24.9,68.1c8.8,10.9,16.5,22.6,22.9,35c1.8,3.5,3.5,7.1,5.2,10.6c0.1,0.1,0.2,0,0.2-0.1
								c-2.6-6.5-5.8-12.8-9.3-18.8c-3.5-6.1-7.4-12.1-11.5-17.8c-2.3-3.1-4.7-6.2-7.2-9.2C24.9,67.7,24.7,67.9,24.9,68.1L24.9,68.1
								z"/>
						</g>
					</g>
					<g class="st31">
						<g>
							<path class="st32" d="M36,70.9c2,2.4,4.2,4.8,6.2,7.2c2,2.5,4,5,5.9,7.7c3.8,5.1,7.2,10.4,10.4,15.9c1.8,3.1,3.5,6.3,5.2,9.5
								c0.1,0.2,0.3,0,0.2-0.1c-5.5-11.5-12.5-22.4-20.7-32.3c-2.3-2.8-4.6-5.6-7.2-8.1C36.1,70.7,35.9,70.8,36,70.9L36,70.9z"/>
						</g>
					</g>
					<g class="st31">
						<g>
							<path class="st32" d="M45.4,71c9.4,8.9,17.6,18.9,24.5,29.8c1.9,3.1,3.8,6.2,5.6,9.3c0.1,0.1,0.3,0,0.2-0.1
								c-5.9-11.5-13.5-22.1-22.3-31.6c-2.5-2.6-5.1-5.2-7.7-7.6C45.4,70.7,45.3,70.9,45.4,71L45.4,71z"/>
						</g>
					</g>
					<g class="st31">
						<g>
							<path class="st32" d="M55.4,68c9.3,8,16.7,17.9,23.3,28.1c1.9,2.9,3.6,5.8,5.5,8.7c0.1,0.1,0.2,0,0.1-0.1
								c-3-5.4-6.4-10.6-9.9-15.6c-3.4-4.9-7.2-9.7-11.3-14c-2.4-2.5-4.9-4.9-7.5-7.2C55.5,67.7,55.3,67.9,55.4,68L55.4,68z"/>
						</g>
					</g>
					<g class="st31">
						<g>
							<path class="st32" d="M66.8,66.6C73.9,74.5,81,82.3,87,91c1.7,2.5,3.2,5,4.8,7.5c0.1,0.1,0.3,0,0.2-0.1
								c-2.3-4.8-5.4-9.2-8.6-13.4c-3.2-4.2-6.6-8.1-10.2-12c-2-2.2-4.1-4.4-6.2-6.6C66.8,66.4,66.7,66.5,66.8,66.6L66.8,66.6z"/>
						</g>
					</g>
				</g>
				<polygon class="st33" points="37.2,71.6 50.1,76.5 42.6,82 34.2,72.7 				"/>
				<polygon class="st33" points="62.9,71.7 50.1,76.5 58.1,81.8 66.6,72.9 				"/>
				<polygon class="st34" points="50.1,76.5 50.1,76.6 43.8,81.5 34,72.5 34,72.5 37.2,71.6 48.3,75.9 50.1,76.5 				"/>
				<polygon class="st34" points="66.8,72.9 66.7,72.9 56.3,81.5 50.1,76.6 50,76.5 50.1,76.5 51.8,75.9 51.8,75.9 62.9,71.7 				
					"/>
				<path class="st11" d="M54.7,59c0,1.4-2.1,4.1-4.7,4.1c-2.6,0-4.7-2.8-4.7-4.1s2.1-0.9,4.7-0.9C52.6,58.1,54.7,57.6,54.7,59z"/>
			</g>
			<g>
				<g>
					<path class="st19" d="M37.8,33.7c3.2,2.4,8.3,1.6,6.2-0.6c4.8,2.3,11.6,3.4,16.8,2c2.4-0.6,4.8-1.8,6.4-3.8
						c1.6-2.1,1.3-5.2-0.2-7.3c-1.4-2.2-4.2-2.7-6.7-3c1.2-0.3,1.8-0.5,2-1.2c0.2-0.8-0.5-1.7-3.4-1.7c-4.1,0-8.1,1.5-11.5,3.9
						c2.4-2.5,2.4-4.1,1.6-4.4c-0.4-0.1-0.8,0-1.1,0.2c-2.2,1-4.2,2.8-5.5,5c-9.5-1.4-9.9,5.9-10.2,9.3c-0.3,3.4,2.8,10.4,3.4,9
						C37,38.1,37.8,36.6,37.8,33.7z"/>
				</g>
				<g>
					<path class="st35" d="M46.7,31c1.3,0.8,2.7,1.3,4.2,1.6c1.5,0.3,3,0.3,4.5,0.3c1.5,0,3-0.2,4.5-0.4c1.5-0.3,2.9-0.8,4.3-1.5
						c-1.2,1-2.6,1.6-4.1,2c-1.5,0.4-3.1,0.6-4.6,0.6c-1.5,0-3.1-0.1-4.6-0.5C49.2,32.7,47.8,32.1,46.7,31z"/>
				</g>
				<g>
					<path class="st35" d="M55,29.8c1.6,0,3.2-0.2,4.7-0.7c0.7-0.3,1.4-0.6,2.1-1c0.7-0.4,1.3-0.8,1.7-1.6c-0.1,0.8-0.8,1.5-1.4,2
						c-0.7,0.5-1.4,0.9-2.2,1.2C58.3,30.3,56.5,30.4,55,29.8z"/>
				</g>
			</g>
		</g>
	</g>
</g>
<g class="st0">
	<g class="st1">
		<defs>
			<ellipse id="SVGID_9_" transform="matrix(0.7071 -0.7071 0.7071 0.7071 -20.7107 50)" cx="50" cy="50" rx="50" ry="50"/>
		</defs>
		<clipPath id="SVGID_10_">
			<use xlink:href="#SVGID_9_"  style="overflow:visible;"/>
		</clipPath>
		<ellipse transform="matrix(0.7071 -0.7071 0.7071 0.7071 -20.7107 50)" class="st36" cx="50" cy="50" rx="50" ry="50"/>
		<g class="st37">
			<g>
				<path class="st20" d="M67,73.8l-3.2,1l-11.4,3.7l-2.5,0.8l-2.2-0.8l-11-4.2l-2.9-1.1c0,0,1.2-0.5,2.6-1l1.8-0.7
					c1.6-0.6,3.1-1.2,3.2-1.2c0.2-0.5,0.5-1.9,0.5-5.5c0-0.8,0-1.6,0-2.6h16c0,1.4,0,2.6,0,3.6c0.1,2.9,0.4,4.1,0.5,4.6
					c0.1,0,1.5,0.6,3.2,1.3c0.4,0.2,0.8,0.3,1.2,0.5C64.9,73,67,73.8,67,73.8z"/>
				<g>
					<path class="st21" d="M63.9,46.5c0,0,2.6-1.1,4.1,0.9c1.5,2-1.5,8.5-6.6,6.4"/>
					
						<linearGradient id="SVGID_11_" gradientUnits="userSpaceOnUse" x1="-73.551" y1="19.3028" x2="-68.3297" y2="19.3028" gradientTransform="matrix(0.9466 0.3224 -0.3224 0.9466 139.653 55.4767)">
						<stop  offset="0" style="stop-color:#FDA889"/>
						<stop  offset="1" style="stop-color:#FDA889;stop-opacity:0"/>
					</linearGradient>
					<path class="st38" d="M63.9,46.5c0,0,2.6-1.1,4.1,0.9c1.5,2-1.5,8.5-6.6,6.4"/>
				</g>
				<g>
					<path class="st21" d="M35.9,46.7c0,0-2.4-1.4-4.2,0.4c-1.7,1.8,0.5,8.6,5.8,7.1"/>
					
						<linearGradient id="SVGID_12_" gradientUnits="userSpaceOnUse" x1="116.4532" y1="94.8015" x2="112.1126" y2="94.8571" gradientTransform="matrix(0.9775 -0.211 0.211 0.9775 -97.8183 -17.9982)">
						<stop  offset="0" style="stop-color:#FDA889"/>
						<stop  offset="1" style="stop-color:#FDA889;stop-opacity:0"/>
					</linearGradient>
					<path class="st39" d="M35.9,46.7c0,0-2.4-1.4-4.2,0.4c-1.7,1.8,0.5,8.6,5.8,7.1"/>
				</g>
				<path class="st40" d="M57.9,65.8c-1.8,1.3-4.1,2-7.4,2c-4,0-6.6-1.2-8.5-3c0-0.8,0-1.6,0-2.6h16C57.9,63.7,57.9,64.8,57.9,65.8z
					"/>
				<path class="st25" d="M64,35.8c-2.3-9.8-14.2-8.2-14.2-8.2S37.9,26,35.6,35.8c0,0-1.2,11.4,0.6,17.4c1.8,6.1,3.5,13.9,13.6,13.9
					c10.6,0,11.7-8.3,13.5-14.3C65.1,46.7,64,35.8,64,35.8z"/>
				<g>
					<path class="st41" d="M50.1,47.9c0,0-0.1,3.7-1.7,5.4c0,0,0.6,0.5,1.7,1.2"/>
					<path class="st27" d="M42.8,49.3c0.1,0.8,0.6,1.3,1.1,1.3c0.5-0.1,0.9-0.7,0.8-1.5s-0.6-1.3-1.1-1.3
						C43.1,47.9,42.8,48.5,42.8,49.3z"/>
					<path class="st42" d="M46,45c0,0-4.3-1.4-6.9,0.4C39.1,45.4,42,42.7,46,45z"/>
					<path class="st29" d="M44,54.7c-0.1,1.1-1.5,1.8-3.2,1.7c-1.7-0.1-3-1-3-2.1c0.1-1.1,1.5-1.8,3.2-1.7
						C42.8,52.7,44.1,53.6,44,54.7z"/>
					<path class="st27" d="M56.9,49.3c-0.1,0.8-0.5,1.3-1.1,1.3c-0.5,0-0.9-0.7-0.9-1.4c0.1-0.8,0.5-1.3,1.1-1.3
						C56.6,47.9,57,48.6,56.9,49.3z"/>
					<path class="st42" d="M54,44.8c0,0,4.3-1.2,6.9,0.6C60.9,45.4,58.1,42.7,54,44.8z"/>
					<path class="st29" d="M55.3,54.8c0.1,1.1,1.6,1.8,3.3,1.6c1.7-0.2,3-1.1,2.9-2.2c-0.1-1.1-1.6-1.8-3.2-1.6
						C56.5,52.8,55.2,53.8,55.3,54.8z"/>
				</g>
			</g>
			<path class="st43" d="M63.9,74.8L63.9,74.8l-3.2,3.3c0,0-5.5,0.3-8.3,0.5c-0.9,0.1-1.5,0.1-1.7,0.1c-0.2,0-1.5-0.1-3-0.1l-11-4.2
				c-0.5-0.7-0.9-1.3-0.9-1.3l0.6-0.8l1.8-0.7c2.4,1.9,10.5,6.8,23.4,0.1c0.4,0.2,0.8,0.3,1.2,0.5L63.9,74.8z"/>
			<g>
				<path class="st44" d="M74.1,102.6c2.4-11.3,6.3-25.5,6.3-25.5l-18.5-5.3l-0.4,0.2c-7.1,5-16.7,4.8-23.6-0.5l-19,5.5
					c0,0,3.9,14.3,6.3,25.5H74.1z"/>
			</g>
			<path class="st45" d="M35.2,47.2l0.7-5.9c0,0,5.6,0.2,6.7-5.5c0.9,1.6,3.7,2.1,4.6,2.3c1.1,1.4,3.5,2.3,5.6,1.9
				c-3.5-2.3-2.8-4.8-2.8-4.8s0.6,3.1,7.3,4.5c-2-1.7-2.4-3.2-2.4-3.2s2.5,3.1,7.6,3.3c1.5,3.5,1.2,7.6,1.2,7.6l1-7.3
				c0,0,4.6,1.1,0.6-2.4c-4-3.5-3.8-3.2-3.8-3.2l-9.4-3c0,0-0.6-1.4-7.2-0.6c-6.6,0.8-4.3-3.8-6.4,0.4c-2,4.2-1.6,2.7-1.6,2.7
				l-1.4,2.6l-1.8,2v2.2L35.2,47.2z"/>
			<path class="st46" d="M35.2,47.2l0.4-6.9c0,0,4.9,0.5,6.8-5.9c1.2,1.5,1.8,2.8,5.6,3.2c2,1.7,2.3,1.7,4.9,2.3
				c-1.4-1.1-2.8-3.5-2.5-5.6c0.8,2,4.1,4.9,6.9,5.2c-1.8-1.5-2-4.1-2-4.1c2.4,2.2,5.6,3.6,7.5,3.6c0.8,2.5,0.9,8.2,0.9,8.2
				s1.6-1.8,3-0.8c1.1-3.1,2.4-9.6,2.3-10.9c-0.1-1.3-1.1-5-1.1-5s1.3,1.1,3,0.8c-1.3-0.8-3.1-2.7-3.7-4.5c-0.6-1.7-3-8.2-10.9-8
				c2.6-0.2,3.2-1,3.2-1s-2.1,0.8-4.4-0.2c-2.3-1-6.5-1.9-9.6,1c0.3-0.9,1-2.4,2.3-3c-2.3,1.1-4.5,1.9-6.1,6.4
				c-2.3-1.1-6.7-1.1-9.3,3.9c-0.9,1.8-2.3,8.5-5.2,9.5c1.6-0.2,4-0.9,4.3-1.8c-0.6,2.1-2.2,5.2-2.8,5.4c1.5-0.1,2.7-1.8,2.7-1.8
				s-0.6,5,1.3,9C33.4,46.2,34,46,35.2,47.2z"/>
			<g>
				<path class="st47" d="M52.9,40c-1.6-0.1-3.3-0.7-4.6-1.8c-0.7-0.5-1.2-1.2-1.6-1.9c-0.4-0.7-0.6-1.6-0.7-2.4
					c0.3,0.8,0.6,1.5,1.1,2.1c0.4,0.6,1,1.2,1.6,1.7c0.6,0.5,1.3,0.9,2,1.3C51.3,39.4,52.1,39.7,52.9,40z"/>
				<path class="st47" d="M48.5,35.1c0.5,1,1,2,1.7,2.8c0.3,0.4,0.7,0.8,1.1,1.1c0.4,0.3,0.9,0.6,1.4,0.9c-0.6,0-1.2-0.2-1.7-0.5
					c-0.5-0.3-1-0.7-1.3-1.2c-0.4-0.5-0.7-1-0.9-1.5C48.7,36.3,48.5,35.7,48.5,35.1z"/>
				<path class="st47" d="M51.7,34.3c0.7,1.2,1.4,2.3,2.4,3.2c0.5,0.5,1,0.9,1.5,1.2c0.5,0.4,1.2,0.6,1.8,0.9
					c-0.7-0.1-1.4-0.2-2-0.5c-0.3-0.1-0.6-0.3-0.9-0.5c-0.3-0.2-0.6-0.4-0.8-0.7c-0.5-0.5-0.9-1-1.3-1.6C52,35.6,51.8,35,51.7,34.3z
					"/>
				<path class="st47" d="M42.4,34.4c-0.2,1.1-0.6,2.1-1.2,3.1c-0.6,0.9-1.4,1.8-2.5,2.3c-1,0.5-2.2,0.8-3.3,0.7l-0.4,0l-0.4-0.1
					l-0.8-0.2c-0.5-0.2-1-0.4-1.6-0.6c0.5,0.1,1.1,0.2,1.6,0.3l0.8,0.1l0.4,0l0.4,0l0.8,0l0.8-0.2c0.3,0,0.5-0.2,0.7-0.2l0.4-0.1
					l0.3-0.2c0.9-0.5,1.7-1.2,2.4-2.1C41.5,36.4,42,35.4,42.4,34.4z"/>
				<path class="st47" d="M55.4,35.5c0.6,0.6,1.3,1.1,2,1.5c0.7,0.4,1.5,0.8,2.3,1.1c0.8,0.3,1.6,0.5,2.4,0.6
					c0.8,0.1,1.7,0.2,2.5,0.2c-0.4,0.1-0.8,0.2-1.3,0.2c-0.4,0-0.9,0.1-1.3,0c-0.9,0-1.7-0.3-2.6-0.5c-0.8-0.3-1.6-0.7-2.3-1.3
					C56.5,36.8,55.8,36.2,55.4,35.5z"/>
			</g>
			<g>
				<path class="st11" d="M53.6,59.3c-0.1,0.3-0.2,0.4-0.4,0.9c-0.1,0.2-0.3,0.4-0.4,0.6c-0.8,1.1-2,2.1-3.3,2c-1.4,0-2.4-1-3.1-1.9
					c-0.1-0.2-0.3-0.4-0.4-0.6c-0.1-0.2-0.2-0.5-0.3-0.6c-0.2-0.6-0.1-1.2,0.6-1.3c1.8-0.3,3.6-0.3,5.5-0.1
					C52.4,58.3,53.8,58.4,53.6,59.3z"/>
			</g>
			<path class="st44" d="M26.4,102.6C26.4,102.6,26.4,102.6,26.4,102.6L19,77.1c0,0-4.5,1.3-7.2,12.1c-2.7,8-3.8,11.8-4.2,13.4H26.4
				z"/>
			<path class="st44" d="M92,102.6c-0.7-2.2-2-6.4-4.3-13.4c-2.7-10.8-7.2-12.1-7.2-12.1l-7.4,25.5c0,0,0,0,0,0.1H92z"/>
			<g>
				<g>
					<path class="st48" d="M36.5,74.5c2.7,3.1,7.3,3.9,11.3,4.1c2.3,0.1,4.7,0.2,6.9-0.2c2.1-0.3,4-1.1,5.7-2.3
						c0.3-0.2,0-0.6-0.2-0.4c-1.7,1.1-3.5,1.8-5.4,2.2c-2.2,0.4-4.5,0.3-6.7,0.2c-2.1-0.1-4.2-0.3-6.3-1c-1.9-0.6-3.5-1.6-5-2.9
						C36.6,74.1,36.4,74.3,36.5,74.5L36.5,74.5z"/>
				</g>
			</g>
			<circle class="st49" cx="49.2" cy="86.2" r="1.2"/>
			<circle class="st49" cx="49.2" cy="93.7" r="1.2"/>
			<circle class="st49" cx="49.1" cy="99.9" r="1.2"/>
		</g>
	</g>
</g>
<g class="st0">
	<g class="st1">
		<defs>
			<ellipse id="SVGID_13_" transform="matrix(0.1639 -0.9865 0.9865 0.1639 -7.5174 91.1309)" cx="50" cy="50" rx="50" ry="50"/>
		</defs>
		<clipPath id="SVGID_14_">
			<use xlink:href="#SVGID_13_"  style="overflow:visible;"/>
		</clipPath>
		<ellipse transform="matrix(0.1639 -0.9865 0.9865 0.1639 -7.5174 91.1309)" class="st50" cx="50" cy="50" rx="50" ry="50"/>
		<g class="st51">
			<g>
				<path class="st52" d="M98.2,105.6c-2.8-9.6-6.6-17.7-9-22c-0.9-1.7-2.2-3.1-3.7-4.3c-2.5-1.9-6.9-4.9-12.7-7.4
					c-9.9-4.3-23.7-7.2-38.8-0.8c0,0-0.1,0-0.3,0.1c-1.4,0.6-8.5,3.6-13.3,6c-2.8,1.4-5,3.8-6.1,6.7c-1.7,4.6-4.4,12.6-6.2,21.7
					H98.2z"/>
				<g class="st53">
					<path class="st54" d="M26.3,89.3c0.2,1.3,0.2,2.4,0.2,3.4c0,1.1,0,2.1-0.1,3.2c-0.1,1-0.2,2.1-0.5,3.2
						c-0.2,1.1-0.5,2.2-1.1,3.3c-0.7-1.1-1.1-2.2-1.3-3.3c-0.2-1.1-0.3-2.3-0.2-3.5c0.1-1.2,0.4-2.3,0.9-3.4
						C24.6,91.1,25.3,90.1,26.3,89.3z"/>
				</g>
				<g class="st53">
					<path class="st54" d="M81.5,102.3c-0.2-1.4-0.1-2.8,0-4c0.2-1.3,0.4-2.5,0.8-3.7c0.3-1.2,0.7-2.4,1.2-3.6
						c0.5-1.2,1-2.4,1.8-3.6c0.5,1.4,0.6,2.7,0.6,4.1c0,1.3-0.2,2.7-0.6,3.9c-0.3,1.3-0.8,2.5-1.4,3.7
						C83.2,100.2,82.5,101.3,81.5,102.3z"/>
				</g>
				<g>
					<g>
						<g>
							<path class="st55" d="M69.8,99.2c-0.3,0.2-0.4,0.4-0.4,0.7c0,0.3,0.2,0.6,0.4,0.8c0.3,0.3,0.6,0.4,1,0.4
								c0.4-0.1,0.7-0.3,0.8-0.6c0.2-0.4,0-0.8-0.1-1.2c0-0.1-0.5,0-0.5,0.1c0.1,0.3,0.2,0.6,0.2,1c0,0.1-0.1,0.2-0.1,0.3
								c0,0-0.1,0.1-0.1,0.1c0,0,0,0-0.1,0c0,0,0,0,0,0c0,0,0,0,0,0c0,0-0.1,0-0.1,0c-0.1,0-0.1-0.1-0.2-0.1
								c-0.1-0.1-0.2-0.1-0.3-0.2c-0.2-0.2-0.3-0.4-0.3-0.7c0-0.3,0.1-0.6,0.3-0.7c0,0,0.1,0,0.1-0.1c0,0-0.1,0-0.1,0
								C70,99.1,69.9,99.1,69.8,99.2L69.8,99.2z"/>
						</g>
					</g>
					<g>
						<g>
							<path class="st55" d="M28.9,78.4c-0.2,0-0.4,0.1-0.6,0.3c-0.1,0.1-0.1,0.3,0,0.5c0.1,0.3,0.5,0.6,0.8,0.7
								c0.4,0.1,0.9,0,1.2-0.2c0.3-0.2,0.4-0.5,0.4-0.8c-0.1-0.4-0.5-0.6-0.9-0.5c-0.1,0-0.3,0-0.3,0.1c-0.1,0.1,0.1,0.1,0.1,0.1
								c0.2,0,0.4,0.2,0.5,0.4c0.1,0.2,0.1,0.5-0.1,0.7c-0.1,0.1-0.1,0.2-0.2,0.2c-0.1,0,0,0,0,0c0,0-0.2,0-0.2,0
								c-0.3,0-0.5-0.2-0.7-0.4c-0.1-0.1-0.2-0.3-0.2-0.4c0-0.1,0-0.1,0.1-0.2c0,0,0-0.1,0-0.1c0.1-0.1,0.1,0-0.1,0
								c0.1,0,0.1,0,0.2-0.1c0,0,0.1,0,0.1-0.1C29.2,78.4,29,78.4,28.9,78.4L28.9,78.4z"/>
						</g>
					</g>
					<g>
						<g>
							<path class="st55" d="M77.5,83.9c-0.3,0.1-0.6,0.3-0.7,0.7c0,0.3,0.1,0.6,0.4,0.8c0.3,0.2,0.7,0.2,1.1,0
								c0.3-0.1,0.5-0.4,0.5-0.7c0-0.3-0.3-0.6-0.6-0.7c-0.1,0-0.3,0-0.4,0.1c0,0-0.2,0.1-0.1,0.2c0.2,0.1,0.4,0.2,0.4,0.4
								c0.1,0.2,0,0.4-0.1,0.6c0,0,0,0,0,0c0,0,0,0,0,0c0,0,0,0,0,0c0,0,0,0,0,0c0,0,0,0,0,0c0,0,0,0,0,0c-0.1,0,0.1,0,0,0
								c0,0,0,0,0,0c0,0,0,0,0,0c0,0,0,0-0.1,0c0,0-0.1,0-0.1-0.1c-0.2-0.1-0.4-0.3-0.4-0.6c0-0.1,0-0.3,0.1-0.4
								c0,0,0.1-0.1,0.1-0.1c0,0,0,0,0,0c0,0,0,0,0,0c0,0,0,0,0,0c0,0,0,0,0,0c0.1,0,0.3-0.1,0.2-0.2C77.8,83.8,77.6,83.8,77.5,83.9
								L77.5,83.9z"/>
						</g>
					</g>
					<g>
						<g>
							<path class="st55" d="M55.7,89.1c-0.3-0.1-0.7,0.2-0.8,0.6c0,0.3,0.2,0.6,0.5,0.7c0.3,0.2,0.7,0.2,1.1,0.1
								c0.3-0.1,0.5-0.4,0.6-0.7c0-0.4-0.3-0.7-0.6-0.7c-0.1,0-0.3,0-0.3,0.2c-0.1,0.1,0,0.2,0.2,0.2c0,0,0,0,0.1,0c-0.1,0,0,0,0,0
								c0,0,0,0,0,0c0,0,0,0,0,0c0.1,0.1,0.1,0.1,0.1,0.2c0,0.1,0,0.2,0,0.2c0,0,0,0,0,0.1c0,0,0,0,0,0c0,0,0,0,0,0c0,0,0,0,0,0
								c0,0,0,0,0,0c0,0,0,0,0,0c0,0,0,0,0,0c0,0,0,0,0,0c0,0,0,0,0,0c0,0,0.1,0,0,0c0,0-0.1,0,0,0c0,0-0.1,0-0.1,0c0,0,0,0,0,0
								c0,0,0,0,0,0c0,0-0.1,0-0.1,0c0,0,0,0,0,0c0,0-0.1,0-0.1,0c-0.2-0.1-0.3-0.2-0.4-0.4c0-0.1,0-0.2,0-0.3c0,0,0,0,0,0
								c0,0,0,0,0,0c0,0,0,0,0,0c0,0,0,0,0,0c0,0-0.1,0,0,0c0,0,0,0,0,0c0,0,0,0,0,0c0.1,0,0.3,0,0.3-0.2
								C55.9,89.2,55.8,89.1,55.7,89.1L55.7,89.1z"/>
						</g>
					</g>
					<g>
						<g>
							<path class="st55" d="M31,94.6c-0.6-0.2-1.4,0.4-1.1,1c0.1,0.3,0.4,0.5,0.7,0.5c0.3,0.1,0.7,0,0.9-0.2
								c0.3-0.2,0.4-0.6,0.4-0.9c0,0-0.1-0.1-0.1-0.1c-0.1,0-0.1,0-0.2,0c-0.1,0-0.2,0.1-0.2,0.2c0,0,0,0,0,0c0,0,0,0,0,0
								c0,0,0,0.1,0,0.1c0,0.1,0,0.1,0,0.2c0,0,0,0,0,0c0,0,0,0,0,0c0,0,0,0,0,0.1c0,0,0,0,0,0.1c0,0,0,0,0,0c0,0,0,0,0,0.1
								c0,0,0,0,0,0c0,0,0,0,0,0c0,0,0,0-0.1,0c0,0,0,0,0,0c0,0,0,0,0,0c0,0,0,0,0,0c0,0,0,0,0,0c0,0-0.1,0-0.1,0c0,0,0,0,0,0
								c0,0,0,0,0,0c0,0,0,0,0,0c0,0,0,0,0,0c0,0,0,0-0.1,0c0,0,0,0,0,0c0,0,0,0,0,0c0,0,0,0-0.1,0c0,0,0,0,0,0c0,0,0,0,0,0
								c0,0-0.1-0.1-0.1-0.1c0,0,0,0,0,0c0,0,0,0,0,0c0,0,0,0,0-0.1c0,0,0,0,0-0.1c0,0,0,0,0,0c0,0,0,0,0-0.1c0,0,0,0,0,0
								c0,0,0,0,0,0c0,0,0,0,0-0.1c0,0,0-0.1,0,0c0,0,0,0,0-0.1c0,0,0,0,0,0c0,0,0,0,0,0c0,0,0,0,0.1-0.1c0,0,0,0,0,0c0,0,0,0,0,0
								c0,0,0,0,0,0c0,0,0,0,0,0c0,0,0,0,0.1,0c0,0,0,0,0,0c0,0,0,0,0,0c0,0,0,0,0,0c0,0,0,0,0,0c0,0,0,0,0,0c0,0,0,0,0,0
								c0,0,0,0,0,0c0,0,0,0,0.1,0c0.1,0,0.3,0,0.4-0.1C31.1,94.7,31.1,94.6,31,94.6L31,94.6z"/>
						</g>
					</g>
					<g>
						<g>
							<path class="st55" d="M13.3,90.1c-0.3,0-0.7,0.2-0.7,0.6c0,0.3,0.2,0.6,0.5,0.7c0.2,0.1,0.3,0.1,0.5,0.1
								c0.2,0,0.5,0.1,0.7,0.1c0.4,0,0.9-0.3,0.9-0.7c0.1-0.4-0.3-0.7-0.7-0.8c-0.1,0-0.3,0-0.4,0c-0.1,0-0.2,0.2,0,0.2
								c0.2,0.1,0.5,0.2,0.5,0.4c0,0.1,0,0.2,0,0.3c-0.1,0.1-0.1,0.1-0.2,0.2c-0.1,0-0.3,0-0.4,0c-0.1,0-0.3,0-0.4-0.1
								c-0.2-0.1-0.5-0.2-0.5-0.4c0-0.1,0-0.2,0-0.3c0,0,0-0.1,0.1-0.1c0,0,0,0,0,0c0,0,0,0,0,0c0,0-0.1,0-0.1,0
								c0.1,0,0.3,0,0.3-0.1C13.5,90.2,13.4,90.1,13.3,90.1L13.3,90.1z"/>
						</g>
					</g>
					<g>
						<g>
							<path class="st55" d="M91.6,95.2c-0.4-0.2-0.9,0.1-1,0.5c-0.1,0.4,0.2,0.7,0.6,0.9c0.4,0.2,0.8,0.2,1.2,0
								c0.4-0.2,0.6-0.6,0.5-1C92.7,95.1,92.1,95,91.6,95.2c0,0-0.1,0.2,0,0.3c0.1,0.1,0.2,0.1,0.3,0c0,0,0,0,0,0c0,0,0,0,0,0
								c0,0,0,0,0,0c0,0,0,0,0.1,0c0,0,0,0,0,0c0,0,0,0,0,0c0,0,0.1,0,0,0c0,0,0,0,0,0c0,0,0.1,0,0.1,0c0,0,0.1,0,0.1,0.1
								c0,0,0.1,0.1,0.1,0.1c0,0.1,0.1,0.2,0,0.3c0,0.1-0.1,0.2-0.2,0.2c0,0,0,0,0,0c0,0,0,0-0.1,0c0,0-0.1,0,0,0c0,0,0,0,0,0
								c0,0,0,0,0,0c0,0-0.1,0,0,0c0,0,0,0,0,0c0,0,0,0-0.1,0c0,0,0,0-0.1,0c0,0,0,0,0,0c0,0-0.1,0-0.1,0c0,0-0.1,0-0.1,0
								c0,0,0,0,0,0c0,0,0,0-0.1,0c-0.2-0.1-0.4-0.2-0.5-0.5c0,0,0,0,0-0.1c0,0,0,0,0,0c0,0,0-0.1,0,0c0,0,0-0.1,0-0.1c0,0,0,0,0,0
								c0,0,0,0,0,0c0,0,0,0,0,0c0,0,0,0,0,0c0,0,0,0,0,0c0,0,0.1,0,0,0c0,0,0,0,0,0c0,0,0,0,0,0c0,0,0,0,0,0c0,0,0,0,0,0
								c0,0,0,0,0,0c0.1,0.1,0.3,0,0.4-0.1C91.7,95.4,91.7,95.2,91.6,95.2L91.6,95.2z"/>
						</g>
					</g>
				</g>
			</g>
			<g>
				<path class="st56" d="M44.8,15.3C44.8,15.3,44.8,15.3,44.8,15.3c0.3,0,0.5-0.1,0.7-0.1c0.1,0,0.2,0,0.4,0c0.2,0,0.3,0,0.5,0
					c0.2,0,0.3,0,0.5,0c0.1,0,0.1,0,0.2,0c3.8-0.2,7.3,0.5,9.5,1.1c0.3,0.1,0.7,0.2,1,0.3c0,0,0,0,0,0c1.4,0.4,2.8,1.1,4,1.9
					c4,2.7,6.5,6.7,7.9,11.1c0,0,0,0.1,0,0.1c0.1,0.2,0.1,0.4,0.2,0.7c0.1,0.2,0.1,0.5,0.2,0.7c0.1,0.2,0.1,0.4,0.2,0.6
					c0.1,0.3,0.1,0.6,0.2,0.9c0.1,0.2,0.1,0.4,0.1,0.6c0,0.2,0.1,0.5,0.1,0.7c0,0.2,0.1,0.4,0.1,0.6c0,0.1,0,0.1,0,0.2
					c0,0.2,0.1,0.4,0.1,0.6c0,0,0,0,0,0c0,0.2,0.1,0.4,0.1,0.6c0,0.1,0,0.2,0,0.2c0,0.2,0.1,0.5,0.1,0.7c0,0.2,0,0.4,0.1,0.6
					c0,0.3,0.1,0.7,0.1,1c0,0.2,0,0.4,0,0.6c0,0,0,0,0,0c0,0.2,0,0.5,0,0.7c0,0.2,0,0.4,0,0.6c0,0.1,0,0.2,0,0.3c0,0,0,0.1,0,0.1
					c0,0.1,0,0.3,0,0.4c0,0.6,0,1.2,0,1.8c0,0.2,0,0.5,0,0.7c0,0.1,0,0.1,0,0.2c0,0.3,0,0.6,0,0.9c0,0,0,0,0,0c0,0.3,0,0.6-0.1,0.9
					c-0.4,6.4-1.7,11.8-2.2,13.8c-3.4,2.4-17.7,1.1-17.7,1.1L51,56.5c0,0,10-7.7,11.4-11.7c7.1-0.1,4.6-5.1,3.1-6.7c0,0,0,0,0,0
					c0,0,0,0-0.1-0.1c0,0-0.1-0.1-0.1-0.1c0,0-0.1-0.1-0.1-0.1c0,0,0,0,0,0c0,0-0.1-0.1-0.1-0.1c0,0,0,0-0.1,0
					c-13-2.7-16.7-15.8-16.7-15.8c-0.1,0-0.3,0-0.4,0c-4.3,0.1-7,2.8-8.7,6.6c0,0,0,0,0,0c-2.2,4.9-2.5,11.7-2.4,16.9
					c0.1,2.4,0.9,4.6,2.2,6.3c1.4,1.8,3.3,3.2,5.5,3.9v4.7c-11.8,2.7-15.8-1.5-15.8-1.5c-1.3-10.5-0.9-18.4,0.3-24.3
					c0.1-0.4,0.2-0.8,0.3-1.2c0.1-0.2,0.1-0.5,0.2-0.7c0.1-0.5,0.3-1,0.4-1.5c0.1-0.2,0.1-0.4,0.2-0.6c0-0.1,0.1-0.2,0.1-0.3
					c0.1-0.3,0.2-0.6,0.3-1c0-0.1,0.1-0.3,0.1-0.4c0.1-0.2,0.1-0.4,0.2-0.5c0.1-0.4,0.3-0.8,0.4-1.1c0,0,0,0,0-0.1
					c0.1-0.2,0.1-0.3,0.2-0.5c0.2-0.5,0.5-1,0.7-1.5c0.1-0.1,0.1-0.3,0.2-0.4c0,0,0,0,0-0.1L44.8,15.3z"/>
				<path class="st57" d="M64.7,36.5c1.9,11.8-3.3,22.4-11.7,23.8s-16.7-7.1-18.6-18.9c-0.3-1.7-0.4-3.5-0.4-5.1c0,0,0,0,0,0
					c0.1-8.2,3.6-15.2,9.1-17.8c0.9-0.4,1.8-0.7,2.8-0.9l0,0c0,0,0.1,0,0.1,0c8.3-1.3,16.5,6.9,18.5,18.6
					C64.7,36.3,64.7,36.4,64.7,36.5z"/>
				<path class="st6" d="M72.5,71.8c0,0-8.9,15.9-22.9,13.8c-14-2.2-15.6-14.5-15.6-14.5s7.6-2.5,8.6-4.8c0.9-2.1,0.3-6-0.3-8.8
					c-0.4-1.8-0.8-3.1-0.8-3.1l18.8-11.8c0,0-1.2,7.5-1,14.1c0.1,2.2,0.1,4.7,0.4,6.6c0.2,0.8,0.6,1.5,1.3,2
					C67.3,69.5,72.5,71.8,72.5,71.8z"/>
				<path class="st7" d="M60.3,42.7c0,0-1.2,7.5-1,14.1c-2.3,2.4-5.1,3.8-8.2,4c-3.2,0.2-6.2-1-8.8-3.2c-0.4-1.8-0.8-3.1-0.8-3.1
					L60.3,42.7z"/>
				<path class="st8" d="M50.4,59.9c-5.4,0.3-10.4-3.5-13.5-9.4c-1.7-3.3-2.8-7.2-3-11.4c-0.1-1.8,0-3.5,0.2-5.1c0,0,0,0,0,0
					c1-8.2,5.2-14.7,10.9-16.7c0.9-0.3,1.9-0.5,2.9-0.6h0c0,0,0.1,0,0.1,0c8.4-0.5,15.7,8.7,16.4,20.4c0,0.1,0,0.2,0,0.3
					c0,0.2,0,0.3,0,0.5C65,49.7,58.7,59.5,50.4,59.9z"/>
				<g>
					<g>
						<path class="st58" d="M53.1,76.4c0.7-1,2.1-1.3,3.3-1.5c1.5-0.1,3,0.1,4.5,0.3c2.7,0.3,5.5,0.3,8.2,0c0.2,0,0.4-0.3,0.1-0.3
							c-1.7,0.2-3.3,0.3-5,0.2c-1.6,0-3.2-0.2-4.9-0.4c-2.1-0.2-5.3-0.3-6.7,1.7C52.5,76.5,53,76.5,53.1,76.4L53.1,76.4z"/>
					</g>
				</g>
				<g>
					<g>
						<path class="st58" d="M48.5,76c-0.8-1.1-2.3-1.4-3.6-1.6c-1.8-0.2-3.5,0.2-5.2,0.4c-0.3,0-0.4,0.4,0,0.4
							c1.6-0.2,3.2-0.5,4.8-0.4c1.2,0.1,2.8,0.4,3.6,1.4C48.2,76.4,48.7,76.2,48.5,76L48.5,76z"/>
					</g>
				</g>
				<path class="st9" d="M39.4,39.6c0.1,0.8,0.7,1.3,1.2,1.2c0.5-0.1,0.9-0.8,0.7-1.6c-0.1-0.8-0.7-1.3-1.2-1.2
					C39.6,38.1,39.3,38.8,39.4,39.6z"/>
				<path class="st9" d="M54.9,38.9c0,0.8,0.4,1.4,1,1.4c0.6,0,1-0.6,1-1.4c0-0.8-0.4-1.4-1-1.4C55.4,37.5,54.9,38.1,54.9,38.9z"/>
				<path class="st10" d="M60,33.7c-2.7-0.8-4.8-0.5-6.8,0.7l-0.1,0C54.1,32.9,57.9,32.8,60,33.7"/>
				<path class="st10" d="M36.7,35.6c1.9-1.1,4.6-1.9,6.6-0.8l-0.1,0.1C41,34.1,38.6,34.7,36.7,35.6"/>
				<path class="st11" d="M49.9,49.4c1.5-0.1,3-0.3,4.1-0.7c0.1,0.3,0.1,0.6,0.1,0.9c0.1,2.7-1.7,4.9-4.1,5
					c-2.4,0.1-4.5-1.9-4.6-4.6c0-0.3,0-0.7,0-1C46.7,49.4,48.2,49.5,49.9,49.4z"/>
				<path class="st12" d="M49.1,38.6c0,0,0,4.2-1.7,6.2c0,0,0.7,0.6,2,1.3"/>
				<path class="st6" d="M43.1,46.5c0,1.1-1.4,2.1-3.2,2.1c-1.8,0.1-3.3-0.8-3.3-1.9c0-1.1,1.4-2.1,3.2-2.1
					C41.6,44.5,43.1,45.4,43.1,46.5z"/>
				<path class="st6" d="M62.7,45.7c0,1.1-1.4,2.1-3.2,2.1c-1.8,0.1-3.2-0.8-3.3-1.9c0-1.1,1.4-2.1,3.2-2.1
					C61.2,43.7,62.7,44.6,62.7,45.7z"/>
				<path class="st59" d="M64.5,38c-8.8-2.3-13.1-9.5-14.7-13.3c-0.7-1.6-2.5-2.3-4.1-1.8c-8.1,2.8-10.9,16.2-8.8,24.6l0,3.1
					c-1.7-3.3-2.8-7.2-3-11.4c-0.1-1.8,0-3.5,0.2-5.1c0,0,0,0,0,0c1-8.2,5.2-14.7,10.9-16.7c0.9-0.3,1.9-0.5,2.9-0.6h0
					c0,0,0.1,0,0.1,0c8.4-0.5,15.7,8.7,16.4,20.4c0,0.1,0,0.2,0,0.3C64.5,37.6,64.5,37.8,64.5,38z"/>
				<path class="st56" d="M36.7,50.2c-2.3-10.4,0.9-28.5,11.5-28.4c0,0,3.8,13.2,16.7,15.8c1.1,0.6,6.2,8.2,6.2,8.2
					c0.3-5,0.1-10.5-1.4-15.6c-2.4-8.2-8.6-14-17.1-15c-2.1-0.2-5.3-0.3-7.8,0.1c-5.5,0.8-10.2,4.3-12.7,9.2
					c-1.2,2.4-2.5,5.7-3.3,9.9C27.6,40.8,30.8,47.3,36.7,50.2L36.7,50.2z"/>
				<path class="st8" d="M68,37.9c0.9,2.6-0.4,6.1-2,6.7c-1.7,0.6-3.7,0-3.6-3.1c0.1-2.6-0.3-5.1,1.3-5.7
					C65.4,35.2,67.1,35.3,68,37.9z"/>
				<g>
					<g>
						<g>
							<g>
								<path class="st60" d="M44.9,21.1c-4.3,0-7.2,4.2-9,7.7c-1.9,3.6-2.9,7.8-2.8,11.9c0,0,0.1,0,0.1,0.1c0-4.1,0.9-8.1,2.8-11.8
									c0.9-1.8,2.1-3.5,3.5-5C41,22.3,42.7,21.4,44.9,21.1C44.9,21.2,44.9,21.1,44.9,21.1L44.9,21.1z"/>
							</g>
						</g>
					</g>
					<g>
						<g>
							<path class="st60" d="M50.4,19.6c-0.7-0.1,0,2.5,0.1,2.8c0.3,0.9,0.6,1.7,1,2.6c0.8,1.8,1.9,3.4,3.1,4.9c2.2,2.7,4.8,5,7.6,7
								c0,0,0,0,0,0c-3.2-2.3-6.1-4.9-8.4-8c-1-1.3-1.8-2.8-2.5-4.3C51.2,24.1,49.5,19.6,50.4,19.6C50.5,19.7,50.4,19.6,50.4,19.6
								L50.4,19.6z"/>
						</g>
					</g>
					<g>
						<g>
							<path class="st60" d="M52.1,19.7c0.4,1.4,1.3,2.6,2.2,3.7c1,1.1,2,2.2,3.1,3.1c2.2,1.8,4.9,3.1,7.8,3.1c0,0,0.1,0,0.1,0
								c-3,0-5.8-1.4-8.1-3.4c-1.1-0.9-2-2-2.9-3C53.4,22.2,52.5,21.1,52.1,19.7C52.1,19.7,52.1,19.7,52.1,19.7L52.1,19.7z"/>
						</g>
					</g>
					<g>
						<g>
							<path class="st60" d="M54.8,20.4c2.1,3.8,6.6,6.3,11,6.1c0,0,0,0,0.1,0C61.3,26.4,57.3,24.1,54.8,20.4
								C54.8,20.4,54.8,20.4,54.8,20.4L54.8,20.4z"/>
						</g>
					</g>
					<g>
						<g>
							<path class="st60" d="M51.2,20.5c3,6.2,8.4,11.3,14.7,13.9c0,0,0,0,0,0C59.6,31.6,54.3,26.7,51.2,20.5
								C51.2,20.5,51.2,20.5,51.2,20.5L51.2,20.5z"/>
						</g>
					</g>
					<g>
						<g>
							<path class="st60" d="M66.7,46.6c-0.7,4-2.2,7.7-4.3,11.2c0,0,0,0,0,0C64.6,54.4,66.1,50.5,66.7,46.6
								C66.7,46.5,66.7,46.6,66.7,46.6L66.7,46.6z"/>
						</g>
					</g>
					<g>
						<g>
							<path class="st60" d="M68.7,43.3c0.2,5.7-1.1,11.2-3.6,16.3c0,0,0,0,0,0C67.8,54.6,69,48.9,68.7,43.3
								C68.7,43.3,68.7,43.3,68.7,43.3L68.7,43.3z"/>
						</g>
					</g>
					<g>
						<g>
							<path class="st60" d="M46.2,19c-4-0.1-7.4,2-9.6,5.2c-2.4,3.4-4,7.4-4.9,11.5c-0.5,2.3-0.8,4.7-0.7,7.1c0,0,0.1,0,0.1,0
								c0.1-4.1,0.7-8.2,2.3-12c0.7-1.9,1.7-3.7,2.8-5.5c1.1-1.7,2.3-3.3,4-4.4C41.9,19.7,44,19.1,46.2,19C46.2,19,46.2,19,46.2,19
								L46.2,19z"/>
						</g>
					</g>
					<g>
						<g>
							<path class="st60" d="M30.5,33.9c1.5-5.6,4.5-10.7,8.6-14.8c0,0-0.1,0-0.1,0C34.8,23.1,31.9,28.3,30.5,33.9
								C30.5,33.9,30.5,33.9,30.5,33.9L30.5,33.9z"/>
						</g>
					</g>
					<g>
						<g>
							<path class="st60" d="M32.4,26.2c0.4-0.7,0.8-1.4,1.3-2c0.5-0.7,0.9-1.3,1.5-1.9c0,0,0,0,0,0c-0.5,0.6-1,1.2-1.5,1.9
								C33.2,24.8,32.7,25.5,32.4,26.2C32.4,26.3,32.4,26.3,32.4,26.2L32.4,26.2z"/>
						</g>
					</g>
					<g>
						<g>
							<path class="st60" d="M31.1,56.1c-0.4-0.7-0.6-1.5-0.8-2.3c-0.2-0.7-0.4-1.3-0.5-2c-0.3-1.4-0.4-2.8-0.4-4.3c0,0,0,0,0,0
								c0,1.5,0.2,2.9,0.5,4.3c0.1,0.7,0.3,1.4,0.5,2.1C30.6,54.7,30.9,55.4,31.1,56.1C31.1,56.1,31.1,56.1,31.1,56.1L31.1,56.1z"/>
						</g>
					</g>
					<g>
						<g>
							<path class="st60" d="M35,59.1c-1.9-3.5-2.8-7.2-3.1-11.1c0,0-0.1,0-0.1,0C31.9,51.8,33.1,55.7,35,59.1
								C35,59.1,35,59.1,35,59.1L35,59.1z"/>
						</g>
					</g>
					<g>
						<g>
							<path class="st60" d="M39.3,59.5c-1.4-0.9-2.2-2.4-2.9-3.8c-0.9-1.7-1.7-3.4-2.3-5.2c0,0-0.1,0-0.1,0
								c0.5,1.9,1.4,3.7,2.3,5.4C37,57.3,37.8,58.7,39.3,59.5C39.2,59.6,39.3,59.6,39.3,59.5L39.3,59.5z"/>
						</g>
					</g>
					<g>
						<g>
							<path class="st60" d="M40.9,58.9c-1.5-1.4-2.7-3-3.8-4.8c0,0-0.1,0-0.1,0C38.1,55.9,39.4,57.5,40.9,58.9
								C40.9,58.9,41,58.9,40.9,58.9L40.9,58.9z"/>
						</g>
					</g>
					<g>
						<g>
							<path class="st60" d="M30.6,48.5c-0.4-2.7-0.4-5.5-0.2-8.2c0,0-0.1,0-0.1,0C30,43.1,30,45.8,30.6,48.5
								C30.5,48.5,30.6,48.5,30.6,48.5L30.6,48.5z"/>
						</g>
					</g>
					<g>
						<g>
							<path class="st60" d="M34.5,50.4c-1.3-3.5-1.8-7.2-1.9-10.9c0,0,0,0,0,0C32.5,43.2,33.2,46.9,34.5,50.4
								C34.5,50.4,34.5,50.4,34.5,50.4L34.5,50.4z"/>
						</g>
					</g>
					<g>
						<g>
							<path class="st60" d="M35.3,46.4c-0.2-1.9-0.3-3.8-0.2-5.8c0,0,0,0,0,0C35,42.5,35,44.5,35.3,46.4
								C35.3,46.4,35.3,46.4,35.3,46.4L35.3,46.4z"/>
						</g>
					</g>
					<g>
						<g>
							<path class="st60" d="M30,35.1c-0.9,3.6-0.6,7.5-0.2,11.2c0,0,0,0,0,0C29.5,42.6,29.1,38.8,30,35.1C30,35.1,30,35.1,30,35.1
								L30,35.1z"/>
						</g>
					</g>
					<g>
						<g>
							<path class="st60" d="M36.3,33.2c-0.4,1.7-0.6,3.5-0.6,5.3c0,0,0,0,0,0C35.7,36.7,35.9,34.9,36.3,33.2
								C36.3,33.2,36.3,33.2,36.3,33.2L36.3,33.2z"/>
						</g>
					</g>
					<g>
						<g>
							<path class="st60" d="M36,31.6c-0.7,3.1-0.8,6.4-0.5,9.6c0,0,0,0,0,0C35.3,38,35.4,34.8,36,31.6C36,31.6,36,31.6,36,31.6
								L36,31.6z"/>
						</g>
					</g>
					<g>
						<g>
							<path class="st60" d="M51.8,22.5c1.2,2.5,2.7,4.8,4.4,7c0,0,0,0,0,0C54.6,27.3,53.1,25,51.8,22.5
								C51.8,22.5,51.8,22.5,51.8,22.5L51.8,22.5z"/>
						</g>
					</g>
				</g>
			</g>
		</g>
	</g>
</g>
</svg>
