<?xml version="1.0" encoding="utf-8"?>
<!-- Generator: Adobe Illustrator 25.2.0, SVG Export Plug-In . SVG Version: 6.00 Build 0)  -->
<svg version="1.1" id="Layer_1" xmlns="http://www.w3.org/2000/svg" xmlns:xlink="http://www.w3.org/1999/xlink" x="0px" y="0px"
	 viewBox="0 0 400 100" style="enable-background:new 0 0 400 100;" xml:space="preserve">
<style type="text/css">
	.st0{fill:#2563EB;}
	.st1{fill:#3B82F6;}
	.st2{fill:#334155;}
</style>
<g id="Layer_5">
	<g>
		<g>
			<g>
				<path class="st0" d="M0.5,65.3V2.8h10.7v53.9c0,0.3,0.2,0.5,0.5,0.5h27.6v8.2H0.5z"/>
				<path class="st1" d="M10.7,3.2v53.4c0,0.5,0.4,1,1,1h27.2v7.2H1V3.2H10.7 M11.6,2.3H0v63.5h39.7v-9.1H11.6L11.6,2.3L11.6,2.3z"
					/>
			</g>
			<g>
				<path class="st0" d="M57.8,65.3V43.2c0-0.1,0-0.1,0-0.2L36.8,2.8h12.1l13.9,29c0.1,0.1,0.2,0.3,0.4,0.3l0,0
					c0.2,0,0.3-0.1,0.4-0.3l13.8-29h11.9L68.5,43c0,0,0,0.1,0,0.2v22.1H57.8z"/>
				<path class="st1" d="M88.6,3.2L68.1,42.7c0,0.1-0.1,0.3-0.1,0.4v21.7h-9.7V43.2c0-0.1,0-0.3-0.1-0.4L37.6,3.3h10.9L62.4,32
					c0.1,0.3,0.5,0.5,0.9,0.5l0,0c0.4,0,0.7-0.2,0.9-0.5L77.8,3.3L88.6,3.2 M90.2,2.3h-13l-14,29.3L49.1,2.3H36l21.3,40.9v22.6h11.6
					V43.2L90.2,2.3L90.2,2.3z"/>
			</g>
			<g>
				<path class="st0" d="M133.7,65.3l-5-14.4c0-0.2-0.2-0.3-0.4-0.3h-24.7c-0.2,0-0.4,0.1-0.4,0.3L98,65.3H86.9l22.9-62.5h12.4
					L145,65.3H133.7z M115.8,15.2c-0.2,0-0.4,0.1-0.4,0.3l-9.2,26.4c0,0.1,0,0.3,0,0.4c0.1,0.1,0.2,0.2,0.4,0.2h18.4
					c0.1,0,0.3-0.1,0.4-0.2c0.1-0.1,0.1-0.3,0-0.4l-9.3-26.4C116.2,15.3,116,15.2,115.8,15.2L115.8,15.2z"/>
				<path class="st1" d="M121.8,3.2l22.5,61.6H134l-4.9-14c-0.1-0.4-0.5-0.6-0.9-0.6h-24.7c-0.4,0-0.8,0.2-0.9,0.6l-4.9,14H87.6
					l22.5-61.6H121.8 M106.7,43h18.4c0.3,0,0.6-0.1,0.8-0.4c0.2-0.2,0.2-0.6,0.1-0.9l-9.3-26.4c-0.1-0.4-0.5-0.6-0.9-0.6l0,0
					c-0.4,0-0.8,0.2-0.9,0.6l-9.2,26.4c-0.1,0.3,0,0.6,0.1,0.9C106,42.8,106.3,43,106.7,43 M122.4,2.3h-13.1L86.2,65.8h12.2
					l5.2-14.7h24.7l5.1,14.7h12.3L122.4,2.3L122.4,2.3z M106.7,42l9.2-26.4l9.3,26.4H106.7L106.7,42z"/>
			</g>
			<g>
				<path class="st0" d="M195.6,65.3l-29.7-44.4c-0.1-0.1-0.2-0.2-0.4-0.2c0,0-0.1,0-0.1,0c-0.2,0-0.3,0.2-0.3,0.5v44.1h-10.7V2.8
					h10.9l29.7,44.5c0.1,0.1,0.2,0.2,0.4,0.2c0,0,0.1,0,0.1,0c0.2,0,0.3-0.2,0.3-0.5V2.8h10.7v62.5H195.6z"/>
				<path class="st1" d="M205.9,3.2v61.6h-10.1l-29.6-44.2c-0.2-0.3-0.5-0.4-0.8-0.4c-0.1,0-0.2,0-0.3,0c-0.4,0.1-0.7,0.5-0.7,0.9
					v43.6h-9.7V3.2h10.1l29.6,44.3c0.2,0.3,0.5,0.4,0.8,0.4c0.1,0,0.2,0,0.3,0c0.4-0.1,0.7-0.5,0.7-0.9V3.2H205.9 M206.9,2.3h-11.6
					V47L165.4,2.3h-11.6v63.5h11.6V21.2l29.9,44.6h11.6V2.3L206.9,2.3z"/>
			</g>
			<g>
				<g>
					<path class="st0" d="M257.6,62.1c-0.7-0.1-1.2-0.3-1.4-0.4c-1.4-0.5-1.4-1.2-1.5-1.4c0-0.4,0-3.4,0-4.1c0-0.8,0.1-2.4,0.2-3.7
						c2.3-1.6,4-3.9,5.1-6.6c0.4-0.9,0.7-1.9,1-2.8c0.3-0.2,0.7-0.4,1.2-0.8h0c0.1-0.1,0.3-0.2,0.6-0.4l0.2-0.2
						c1.3-0.9,2.1-1.7,2.7-2.7c0.4-0.6,0.6-1.1,0.9-1.9c0.5-1.5,0.6-2.2,0.7-4.5c0-1.3,0.1-1.7,0.1-2.2l0.2-0.2
						c0.1-0.2,0.3-0.3,0.4-0.5c0.2-0.2,0.3-0.3,0.3-0.3c1.6-0.2,2.9-1.5,3.3-3.2c0,0,0,0,0-0.1c0-0.2,0-0.4,0-0.7
						c0.1-0.2,0.2-0.4,0.3-0.6c0.6,2.8,0.9,5.9,0.9,9.2c0,6.3-1.2,11.9-3.4,16.5c-2.3,4.6-5.8,8.3-10.5,10.9
						C258.6,61.7,258.1,61.9,257.6,62.1z"/>
					<path class="st1" d="M272,27.1c0.3,2.2,0.5,4.5,0.5,7c0,6.2-1.2,11.7-3.4,16.3c-2.2,4.5-5.7,8.1-10.3,10.7
						c-0.4,0.2-0.8,0.4-1.3,0.6c-0.7-0.1-1.1-0.3-1.2-0.4c-1.1-0.4-1.2-0.8-1.2-1c0-0.4,0-3.4,0-4c0-0.7,0.1-2.2,0.2-3.5
						c2.3-1.7,4-3.9,5.1-6.6c0.3-0.9,0.7-1.8,0.9-2.7c0.3-0.2,0.6-0.4,1.1-0.7l0,0l0,0c0.1-0.1,0.3-0.2,0.5-0.4l0.2-0.2
						c1.4-0.9,2.2-1.8,2.8-2.7c0.4-0.7,0.6-1.2,0.9-2.1c0.5-1.5,0.6-2.3,0.7-4.6c0-1.1,0.1-1.6,0.1-2c0,0,0.1-0.1,0.1-0.1
						c0.1-0.2,0.3-0.3,0.4-0.5c0.1-0.1,0.1-0.1,0.2-0.2C270.2,29.6,271.4,28.5,272,27.1 M272,22.7c0,0.9-0.2,1.7-0.7,2.7
						c0,0.2,0,0.5,0,0.7l0,0l0,0c-0.3,1.5-1.5,2.7-3,2.9c0,0-0.2,0.1-0.5,0.5c-0.2,0.2-0.5,0.6-0.8,0.8l0,0c-0.1,0.5-0.1,1-0.2,2.4
						c-0.1,2.2-0.2,2.9-0.7,4.4c-0.3,0.9-0.4,1.3-0.8,1.8c-0.6,0.9-1.4,1.6-2.6,2.5l-0.2,0.2c-0.2,0.1-0.4,0.3-0.6,0.4l0,0l0,0
						c-0.5,0.4-0.9,0.6-1.3,0.8c-0.3,1.1-0.6,2.1-1,3c-1.1,2.7-2.8,4.8-5.1,6.5c0,1.5-0.1,3.1-0.2,3.9c0,0.7-0.1,3.8,0,4.2
						c0,0.5,0.3,1.3,1.8,1.8c0.2,0.1,0.8,0.3,1.6,0.5c0,0,0,0,0.1,0c0.5-0.2,1.1-0.5,1.6-0.8c4.8-2.7,8.4-6.3,10.7-11.1
						c2.3-4.7,3.5-10.3,3.5-16.7C273.5,29.9,273,26.1,272,22.7L272,22.7z"/>
				</g>
				<g>
					<path class="st0" d="M219.7,65.3v-51c0.1,0.1,1.1,1,1.1,1l0.3,0.2c0,0,0.1,0.1,0.2,0.1l0.4,0.1l0.4,0.1c0.3,0.1,1,0.4,1.9,1.1
						c0,0,0.4,0.3,0.7,0.5c0,0,0.1,0.1,0.1,0.2c0.4,0.7,0.6,1,1.4,1.8c1.1,1.1,1.5,1.6,3,3.6c0.4,0.5,0.8,1.1,1.1,1.4v31.3
						c0,0.3,0.2,0.5,0.5,0.5h9.5c0.5,0,0.9,0,1.4,0c0.4,0.5,0.9,0.9,1.4,1.1c0,0,0,0,0.1,0c0.6,0.2,0.9,0.2,2.7,0.2
						c0.2,0,0.4,0,0.7,0c0.3,1.1,0.5,2.3,0.7,4v0.2c0.1,0.9,0.1,0.9,0,1.1V63c-0.1,0.4-0.2,1.2-0.2,1.9c-1.9,0.2-4,0.3-6.2,0.3
						L219.7,65.3L219.7,65.3z"/>
					<path class="st1" d="M220.2,15.4l0.3,0.2l0.3,0.2c0.1,0.1,0.2,0.1,0.3,0.2l0.3,0.1l0.4,0.1c0.3,0.1,0.9,0.3,1.7,1
						c0.1,0.1,0.4,0.3,0.7,0.5c0,0,0,0,0,0.1c0.4,0.8,0.8,1.1,1.5,1.9c1.1,1,1.5,1.5,3,3.5c0.3,0.5,0.7,1,1,1.3v31.1
						c0,0.5,0.4,1,1,1h9.5c0.4,0,0.8,0,1.2,0c0.4,0.4,0.9,0.8,1.4,1.1c0,0,0.1,0,0.1,0c0.7,0.2,1.1,0.2,2.8,0.3h0c0.1,0,0.1,0,0.3,0
						c0.2,1,0.4,2.1,0.6,3.5v0.2c0,0.8,0,0.8,0,1l0,0.1c-0.1,0.3-0.2,0.9-0.2,1.6c-1.8,0.2-3.7,0.3-5.7,0.3h-20.7V15.4 M219.2,13.2
						v52.6h21.7c2.4,0,4.6-0.1,6.8-0.4c-0.2-0.9,0-1.7,0.1-2.2l0-0.1c0-0.3,0-0.3,0-1.3v-0.2c-0.1-1.8-0.4-3.1-0.8-4.4
						c-0.4,0-0.8,0-1,0c-1.8,0-2.1,0-2.6-0.2l0,0l0,0c-0.6-0.2-1.1-0.6-1.4-1.2c-0.5,0-1.1,0-1.6,0h-9.5V24.5
						c-0.3-0.4-0.8-1-1.2-1.6c-1.5-2-2-2.6-3.1-3.6c-0.8-0.8-1.1-1-1.4-1.6c-0.1-0.2-0.2-0.3-0.2-0.3c-0.3-0.2-0.7-0.5-0.7-0.5
						c-0.9-0.7-1.6-1.1-2-1.2l-0.4-0.1l-0.4-0.1l-0.3-0.2l-0.8-0.7C219.9,13.9,219.5,13.5,219.2,13.2L219.2,13.2z"/>
				</g>
				<g>
					<path class="st0" d="M262,21.1c-0.2-0.2-0.4-0.4-0.6-0.6l0,0c-0.1,0-0.2-0.2-0.4-0.3c0,0,0,0,0,0c-0.2-0.2-0.5-0.4-0.9-0.6l0,0
						c-0.6-0.3-1.1-0.4-1.7-0.4c-1.3-1.9-3-3.4-5.1-4.6c-3.1-1.8-7.5-2.7-12.8-2.7h-9.3c-1.5-0.4-2.1-0.6-2.8-0.9
						c-0.7-0.3-1.4-0.7-1.8-1.1c0,0,0,0,0,0c-0.1-0.1-0.3-0.3-0.6-0.6c-1.2-1.2-2.6-2-3.9-2.3c-0.2,0-0.4,0-0.7,0
						c-0.2,0-0.9,0-1.4,0.2V2.7H241c7.3,0,13.4,1.3,18.1,3.9c4.7,2.6,8.2,6.2,10.5,10.9c0,0.1,0.1,0.2,0.1,0.3
						c-0.7-0.3-1.4-0.5-2.2-0.6c-0.1,0-0.2,0-0.4,0c-0.3,0-0.6,0-0.8,0c-0.1,0-0.4,0-0.5,0c-1,0.1-1.7,0.5-2.4,1.2
						c-0.5,0.5-0.7,1-1.1,1.8C262.2,20.6,262.1,20.8,262,21.1z"/>
					<path class="st1" d="M240.9,3.2c7.2,0,13.3,1.3,17.9,3.8c4.3,2.4,7.6,5.6,9.9,9.8c-0.4-0.1-0.7-0.1-1.2-0.2c0,0,0,0,0,0
						c-0.1,0-0.2,0-0.4,0c-0.3,0-0.6,0-0.9,0.1c-0.1,0-0.3,0-0.5,0c-1.1,0.1-1.9,0.6-2.7,1.3c-0.6,0.6-0.9,1.2-1.2,1.9
						c0,0,0,0.1,0,0.1c0,0-0.1-0.1-0.1-0.1s0,0,0,0c0,0,0,0,0,0s-0.2-0.1-0.3-0.3l0,0c-0.2-0.2-0.6-0.5-0.9-0.7l0,0c0,0,0,0,0,0
						c-0.6-0.3-1.1-0.4-1.7-0.5c-1.4-1.8-3-3.4-5.2-4.6c-3.2-1.8-7.6-2.7-13.1-2.7h-9.2c-1.4-0.4-2-0.6-2.7-0.9
						c-0.6-0.2-1.4-0.7-1.7-1c0,0,0,0,0,0c-0.1-0.1-0.3-0.3-0.6-0.5c-1.3-1.3-2.7-2.2-4.1-2.4c-0.2,0-0.5,0-0.8,0
						c-0.2,0-0.6,0-1,0.1V3.2L240.9,3.2 M240.9,2.3h-21.7v5.5c0.1-0.1,0.3-0.2,0.4-0.3c0.6-0.2,1.3-0.3,1.5-0.3c0.2,0,0.4,0,0.6,0
						c1.2,0.2,2.5,1,3.7,2.2c0.3,0.3,0.6,0.6,0.6,0.6l0,0l0,0c0.5,0.4,1.3,0.9,2,1.2c0.8,0.3,1.4,0.5,2.9,1h9.4
						c5.3,0,9.5,0.9,12.6,2.7c2.1,1.2,3.8,2.7,5.1,4.7c0.7,0,1.2,0.1,1.7,0.4l0,0l0,0c0.2,0.1,0.6,0.4,0.8,0.5l0,0l0,0
						c0.1,0.1,0.3,0.3,0.4,0.3l0,0l0,0c0.2,0.1,0.4,0.4,0.6,0.7c0.2,0.2,0.4,0.4,0.4,0.5c0.2-0.6,0.3-1,0.6-1.5
						c0.3-0.7,0.6-1.2,1-1.6c0.6-0.6,1.3-0.9,2.1-1c0.1,0,0.4,0,0.5-0.1c0.2,0,0.5,0,0.7,0c0.1,0,0.2,0,0.3,0
						c1.4,0.1,2.6,0.7,3.4,1.6c-0.3-0.7-0.6-1.4-0.9-2c-2.3-4.7-5.9-8.4-10.7-11C254.5,3.6,248.4,2.3,240.9,2.3L240.9,2.3z"/>
				</g>
			</g>
			<g>
				<path class="st0" d="M317,65.3l-11.7-24.7c-0.1-0.2-0.2-0.3-0.4-0.3h-9.6c-0.3,0-0.5,0.2-0.5,0.5v24.5h-10.7V2.8H307
					c5,0,9.1,0.9,12.3,2.5c3.2,1.7,5.6,4,7.2,6.8c1.6,2.8,2.4,6,2.4,9.5c0,3.8-1,7.2-2.9,10.4c-2,3.1-5.1,5.4-9.2,6.8
					c-0.1,0-0.2,0.1-0.3,0.3c0,0.1,0,0.3,0,0.4l12.8,25.9L317,65.3L317,65.3z M295.3,11.5c-0.3,0-0.5,0.2-0.5,0.5v20.2
					c0,0.3,0.2,0.5,0.5,0.5h11c4,0,7-1,8.9-2.9c1.9-2,2.8-4.6,2.8-7.8c0-3.1-1-5.7-2.8-7.6c-1.9-1.9-4.9-2.8-9-2.8L295.3,11.5
					L295.3,11.5z"/>
				<path class="st1" d="M307,3.2c4.9,0,9,0.8,12.1,2.5s5.4,3.9,7,6.6c1.5,2.8,2.3,5.9,2.3,9.3c0,3.7-1,7-2.9,10.1
					c-1.9,3-4.9,5.2-9,6.6c-0.2,0.1-0.5,0.3-0.6,0.5s-0.1,0.5,0,0.8l12.5,25.2h-11.2l-11.5-24.5c-0.1-0.3-0.5-0.5-0.9-0.5h-9.6
					c-0.5,0-1,0.4-1,1v24.1h-9.7V3.2H307 M295.3,33.2h11c4.1,0,7.2-1.1,9.2-3.1c2-2.1,3-4.8,3-8.1c0-3.3-1-5.9-2.9-7.9
					c-2-2-5.1-3-9.4-3h-10.9c-0.5,0-1,0.4-1,1v20.2C294.4,32.8,294.8,33.2,295.3,33.2 M307,2.3h-23.3v63.5h11.6v-25h9.6l11.8,25
					h13.3l-13.2-26.6c4.3-1.4,7.5-3.8,9.5-7c2-3.2,3-6.8,3-10.6c0-3.6-0.8-6.8-2.5-9.7c-1.6-2.9-4.1-5.3-7.4-7
					C316.3,3.1,312.1,2.3,307,2.3L307,2.3z M295.3,32.2V12h10.9c4,0,6.9,0.9,8.7,2.7c1.8,1.8,2.7,4.2,2.7,7.2c0,3.1-0.9,5.5-2.7,7.4
					c-1.8,1.9-4.7,2.8-8.5,2.8L295.3,32.2L295.3,32.2z"/>
			</g>
			<g>
				<path class="st0" d="M383.6,65.3l-5-14.4c0-0.2-0.2-0.3-0.4-0.3h-24.7c-0.2,0-0.4,0.1-0.4,0.3L348,65.3h-11.1l22.9-62.5h12.4
					L395,65.3H383.6z M365.8,15.2c-0.2,0-0.4,0.1-0.4,0.3l-9.2,26.4c0,0.1,0,0.3,0,0.4c0.1,0.1,0.2,0.2,0.4,0.2h18.4
					c0.1,0,0.3-0.1,0.4-0.2c0.1-0.1,0.1-0.3,0-0.4l-9.3-26.4C366.2,15.3,366,15.2,365.8,15.2L365.8,15.2z"/>
				<path class="st1" d="M371.8,3.2l22.5,61.6H384l-4.8-14c-0.1-0.4-0.5-0.6-0.9-0.6h-24.7c-0.4,0-0.8,0.2-0.9,0.6l-5,14h-10.1
					l22.5-61.6H371.8 M356.6,43h18.4c0.3,0,0.6-0.1,0.8-0.4c0.1-0.2,0.2-0.6,0.1-0.9l-9.3-26.4c-0.1-0.4-0.5-0.6-0.9-0.6l0,0
					c-0.4,0-0.8,0.2-0.9,0.6l-9.2,26.4c-0.1,0.3,0,0.6,0.1,0.9C356.1,42.8,356.3,43,356.6,43 M372.5,2.3h-13.1l-23.2,63.5h12.2
					l5.2-14.7h24.7l5.1,14.7h12.3L372.5,2.3L372.5,2.3z M356.6,42l9.2-26.4l9.3,26.4H356.6L356.6,42z"/>
			</g>
		</g>
		<path class="st2" d="M220.4,9.1c-0.4,0.2-0.8,0.8-0.8,1.3c0,0.2,0.2,0.7,0.4,1.1c0.3,0.4,0.7,0.9,1.5,1.6l0.8,0.7l0.4,0.1
			c0.8,0.2,1.6,0.8,2.6,1.4c0.2,0.2,0.5,0.3,0.6,0.4c0.2,0.1,0.5,0.4,0.8,1c0.2,0.4,0.3,0.5,1.1,1.3c1.2,1.1,1.6,1.7,3.3,3.8
			c0.5,0.7,1.2,1.5,1.4,1.8c0.2,0.3,0.6,0.7,0.8,1c1,1.3,2.3,2.7,4.7,4.9c0.9,0.8,1.5,1.4,1.5,1.4c0,0.1,0.9,4,1.6,7.3
			c0.7,3.1,1.1,5,1.4,6.5c0.1,0.6,0.2,1.3,0.3,1.4c0.4,1.5,0.5,3,0.6,7.4c0,0.7,0,1,0.1,1.2c0.1,0.3,0.3,0.6,0.7,0.7
			c0.2,0.1,0.3,0.1,2,0.1c1.7,0,2.1,0,2.2,0.1c0,0,0.1,0.3,0.2,0.6c0.5,1.5,0.8,3.1,1,5.3c0.1,1.5,0.1,1.4,0,2.1
			c-0.2,1-0.2,1.5,0.1,1.8c0.3,0.3,0.7,0.3,1.5,0.1c0.5-0.1,0.7-0.1,1.6,0c1.4,0.1,4.1,0.2,5.7,0.2h0.6l0-0.1
			c-0.1-0.2-0.2-0.5-0.4-0.6c-0.2-0.2-0.9-0.4-1.5-0.6c-0.7-0.2-1.4-0.4-1.8-0.5c-1.7-0.7-2.7-1.7-2.8-3.2c0-0.5,0-3.8,0-4.5
			c0.1-0.8,0.2-2.8,0.2-4.6c0-1.8,0-3.7-0.1-4.4c-0.1-0.8-0.5-1.8-1-2.5l-0.1-0.2l0-1.4c0-1.5,0-5,0-5.1c0.1-0.1,0.8,0.1,1.1,0.3
			c0.2,0.2,0.2,0.3,0.2,0.7c0,0.4,0,0.7,0.3,1c0.3,0.4,1.1,0.7,1.8,0.7c0.8,0,1.3,0.2,2.1,0.9c0.2,0.1,0.4,0.3,0.4,0.3s0.3,0,0.6,0
			c0.5,0,0.6,0,0.9-0.1c0.6-0.2,1.1-0.4,1.9-1c0.1-0.1,0.5-0.4,0.8-0.6c1.1-0.7,1.7-1.4,2.1-2c0.2-0.4,0.3-0.6,0.6-1.4
			c0.4-1.2,0.5-1.7,0.6-3.9c0.1-1.5,0.1-2,0.2-2.7l0.1-0.4l0.4-0.4c0.2-0.2,0.6-0.6,0.8-0.8c0.6-0.7,1-0.9,1.5-1
			c0.8,0,1.4-0.7,1.5-1.5c0-0.2,0-0.3,0-0.5c0-0.2,0-0.2,0.2-0.7c0.6-1.1,0.7-1.9,0.4-3.1c-0.3-1.2-1.4-2-2.8-2.1
			c-0.2,0-0.5,0-0.6,0s-0.4,0-0.6,0.1c-0.4,0-0.8,0.2-1,0.5c-0.3,0.3-0.4,0.5-0.7,1.2c-0.3,0.6-0.4,1-0.6,1.6
			c-0.3,1-0.5,1.4-0.9,1.6c-0.3,0.2-0.5,0.2-0.8,0c-0.4-0.2-0.5-0.4-1.2-1.2c-0.3-0.4-0.8-0.9-0.9-1c-0.1-0.1-0.3-0.3-0.5-0.4
			c-0.1-0.1-0.3-0.2-0.4-0.3c-0.4-0.2-0.6-0.2-1.8-0.2c-1.1,0-1.4,0-2.5-0.2c-1.8-0.3-3.5-0.8-4.7-1.5l-0.4-0.2l-0.8,0
			c-2.3-0.1-3.1-0.3-4.3-0.8c-0.3-0.1-0.3-0.1-1-0.1c-0.4,0-0.8,0-0.9,0c-0.3-0.1-0.5-0.3-1.1-0.9c-0.5-0.6-0.7-0.8-1.1-1
			c-0.3-0.1-0.8-0.1-1.2,0c-1,0.3-1.4,1.2-1.1,2.3l0,0.2l1.6,0.6c0.9,0.3,1.8,0.8,2.2,0.9c0.6,0.3,0.6,0.3,1.3,0.9
			c1.6,1.5,3.2,2.8,5.4,4.2c0.9,0.6,1.1,0.7,1.9,1.2c0.5,0.3,0.9,0.6,1,0.8c0.1,0.2,0.1,0.6,0,0.9c-0.1,0.4-0.5,0.6-1.1,0.6
			c-0.5,0-0.9-0.1-1.4-0.7c-0.4-0.4-1.2-1-2.3-1.8c-1.7-1.3-2.7-2.1-3.3-2.8c-0.6-0.7-1-1-1.7-1.4c-0.2-0.1-0.6-0.3-1-0.5
			c-0.7-0.3-0.8-0.4-1.4-0.9c-0.2-0.1-0.6-0.4-1-0.6c-1.4-0.8-1.9-1.2-2.3-1.8c-0.5-0.9-1.6-1.9-4.4-4.1c0,0-0.2-0.1-0.4-0.1
			c-2.2-0.6-2.9-0.8-3.9-1.2c-0.9-0.3-1.8-0.9-2.4-1.4c-0.1-0.1-0.5-0.4-0.8-0.8c-0.9-0.9-1.9-1.5-2.7-1.7
			C221.2,9,220.6,9,220.4,9.1z"/>
	</g>
	<g>
		<path class="st2" d="M1.4,97.3V75.2h8.2c1.8,0,3.2,0.3,4.4,0.9c1.2,0.6,2,1.4,2.6,2.5c0.6,1,0.9,2.2,0.9,3.5
			c0,1.2-0.3,2.4-0.8,3.4c-0.5,1-1.4,1.8-2.6,2.5c-1.2,0.6-2.7,0.9-4.5,0.9H5.4v8.6L1.4,97.3L1.4,97.3z M5.4,85.5h3.9
			c1.4,0,2.4-0.3,3-0.9c0.6-0.6,0.9-1.5,0.9-2.6c0-1.1-0.3-2-0.9-2.6c-0.6-0.6-1.6-0.9-3-0.9H5.4V85.5z"/>
		<path class="st2" d="M46,97.3V75.2h8.2c1.8,0,3.2,0.3,4.4,0.9c1.2,0.6,2,1.4,2.6,2.5c0.6,1,0.9,2.2,0.9,3.4c0,1.4-0.3,2.6-1.1,3.7
			c-0.7,1.1-1.8,1.9-3.3,2.5l4.6,9.3h-4.6l-4.1-8.7H50v8.7L46,97.3L46,97.3z M50,85.7h3.8c1.4,0,2.4-0.3,3-1c0.6-0.7,1-1.5,1-2.6
			c0-1.1-0.3-1.9-0.9-2.6c-0.6-0.6-1.6-1-3-1H50V85.7z"/>
		<path class="st2" d="M101.4,97.7c-2.2,0-4.1-0.5-5.8-1.4c-1.6-1-2.9-2.3-3.9-4.1c-0.9-1.7-1.4-3.7-1.4-6c0-2.3,0.5-4.2,1.4-6
			c0.9-1.7,2.2-3.1,3.9-4.1c1.6-1,3.6-1.4,5.8-1.4c2.2,0,4.1,0.5,5.8,1.4c1.7,1,2.9,2.3,3.9,4.1c0.9,1.7,1.4,3.7,1.4,6
			c0,2.3-0.5,4.2-1.4,6c-0.9,1.7-2.2,3.1-3.9,4.1C105.5,97.2,103.6,97.7,101.4,97.7z M101.4,94.1c2.1,0,3.8-0.7,5.1-2.1
			c1.3-1.4,1.9-3.3,1.9-5.7c0-2.4-0.6-4.3-1.9-5.7c-1.3-1.4-2.9-2.1-5.1-2.1c-2.1,0-3.8,0.7-5.1,2.1c-1.3,1.4-1.9,3.3-1.9,5.7
			c0,2.4,0.6,4.3,1.9,5.7C97.6,93.4,99.3,94.1,101.4,94.1z"/>
		<path class="st2" d="M147.1,97.7c-2.2,0-3.9-0.6-5.2-1.8c-1.3-1.2-1.9-2.9-1.9-5.2h4.1c0,1,0.2,1.9,0.7,2.5
			c0.5,0.6,1.2,0.9,2.3,0.9c1,0,1.7-0.3,2.1-0.9s0.7-1.4,0.7-2.3V75.2h4.1v15.8c0,2.2-0.6,3.9-1.8,5
			C150.9,97.1,149.2,97.7,147.1,97.7z"/>
		<path class="st2" d="M183.5,97.3V75.2H198v3.3h-10.4v6.1h9.5v3.2h-9.5v6.4H198v3.3L183.5,97.3L183.5,97.3z"/>
		<path class="st2" d="M237.2,97.7c-2.2,0-4.1-0.5-5.7-1.4c-1.6-1-2.8-2.3-3.7-4c-0.9-1.7-1.3-3.7-1.3-6s0.4-4.2,1.3-6
			c0.9-1.7,2.1-3.1,3.7-4.1c1.6-1,3.5-1.4,5.7-1.4c2.7,0,4.8,0.7,6.6,2c1.7,1.3,2.7,3.2,3.2,5.5h-4.5c-0.3-1.2-0.9-2.2-1.7-2.8
			c-0.9-0.7-2.1-1-3.6-1c-2,0-3.7,0.7-4.8,2.1c-1.2,1.4-1.7,3.3-1.7,5.7c0,2.4,0.6,4.3,1.7,5.7c1.2,1.4,2.7,2.1,4.8,2.1
			c1.5,0,2.7-0.3,3.6-1c0.9-0.6,1.5-1.5,1.7-2.7h4.5c-0.4,2.3-1.5,4.1-3.2,5.4C242,97.1,239.8,97.7,237.2,97.7z"/>
		<path class="st2" d="M280.7,97.3V78.4h-6.5v-3.3h17v3.3h-6.5v18.9H280.7z"/>
	</g>
</g>
</svg>
