<?xml version="1.0" encoding="utf-8"?>
<!-- Generator: Adobe Illustrator 25.2.0, SVG Export Plug-In . SVG Version: 6.00 Build 0)  -->
<svg version="1.1" xmlns="http://www.w3.org/2000/svg" xmlns:xlink="http://www.w3.org/1999/xlink" x="0px" y="0px"
	 viewBox="0 0 1000 1000" style="enable-background:new 0 0 1000 1000;" xml:space="preserve">
<style type="text/css">
	.st0{display:none;}
	.st1{display:inline;}
	.st2{fill:#3B82F6;}
	.st3{fill:#2563EB;}
	.st4{fill:#FFFFFF;}
	.st5{display:inline;fill:#3B82F6;}
	.st6{display:inline;fill:#2563EB;}
	.st7{fill:#F8FAFC;}
	.st8{fill:#F1F5F9;}
	.st9{fill:#94A3B8;}
</style>
<g id="Based" class="st0">
	<g class="st1">
		<circle cx="-493.8" cy="280.7" r="37.8"/>
		<circle cx="-132.3" cy="247.8" r="37.8"/>
		<path d="M-104.2,292.7c0,0,14.9,3.2,16.8,29.1s-13.9,62.4-30.7,69.5c-16.8,7.1-75-27.2-82.8-38.8c-7.8-11.6,18.1,0.6,43.3,5.2
			c25.2,4.5,29.7,7.1,31-5.8C-122.6,314.4-118.1,287.8-104.2,292.7z"/>
		<path d="M-161.4,671.9c0,0-34.3-186.2-34.3-218.6s13.6-41.4,21.3-41.4c7.8,0,23.3,11,23.3,46.6S-162.7,626-161.4,671.9z"/>
		<path d="M-474.4,386.8c0,0,174.6,37.5,222.4,37.5s54.3-9.7,54.3-18.8c0-9.1-14.2-24.6-50.4-26.5
			C-284.3,377.1-436.3,377.7-474.4,386.8z"/>
		<path d="M-289.5,342.2c0,0-124.2,20-153.3,20s-31-10.3-31.7-16.8c-0.6-6.5,9.1-18.1,33.6-18.1S-312.1,334.4-289.5,342.2z"/>
		<path d="M-356.1,285.3c0,0,90.5,16.8,115.7,23.3c25.2,6.5,62.7,7.8,61.4-11.6c-1.3-19.4-46.6-17.5-71.8-18.1
			C-275.9,278.1-332.8,278.8-356.1,285.3z"/>
		<path d="M-678.7,591.1c0,0,146.1-69.8,175.9-93.1c29.7-23.3,9.1-41.4,9.1-41.4s-9.1-20-55.6,16.2S-643.8,554.9-678.7,591.1z"/>
		<path d="M-513.9,443.7c0,0-66.6-25.2-69.2-42.7s49.8-23.9,64.7-38.8c14.9-14.9,2.6-27.2,2.6-27.2s-11-17.5-49.1,11
			c-38.2,28.5-55,42.7-49.8,60.1C-609.6,423.6-570.1,437.2-513.9,443.7z"/>
		<path d="M-373.9,594c0,0-5.2-109.9-8.4-110.6c-3.2-0.6-86,18.1-92.5-12.3c-6.5-30.4,59.5-34.9,86-30.4c26.5,4.5,44,17.5,42.7,42.7
			C-347.3,508.7-363.5,564.3-373.9,594z"/>
	</g>
</g>
<g id="Layer_1" class="st0">
	<g class="st1">
		<g>
			<path class="st2" d="M230,554.9V448.8h19.4v90.9h47v15.2H230z"/>
			<path class="st2" d="M333.4,554.9v-37.7l-35.6-68.3h22l23.5,48.9l23.3-48.9h21.7l-35.5,68.3v37.7H333.4z"/>
			<path class="st2" d="M389.1,554.9l38.8-106.1h21.8l38.8,106.1h-20.6l-8.5-24.6h-41.4l-8.6,24.6H389.1z M423.4,515.2h30.8
				l-15.5-44.1L423.4,515.2z"/>
			<path class="st2" d="M509.7,554.9V448.8h19.4l49.9,74.7v-74.7h19.4v106.1H579l-49.9-74.6v74.6H509.7z"/>
			<path class="st2" d="M626.6,554.9V448.8h36.2c12.4,0,22.7,2.2,30.7,6.6c8,4.4,14,10.6,17.9,18.5c3.9,7.9,5.8,17.3,5.8,28
				c0,10.7-1.9,20-5.8,28c-3.9,7.9-9.9,14.1-17.9,18.5c-8,4.4-18.3,6.6-30.7,6.6H626.6z M646,538.2h15.9c8.9,0,15.9-1.4,21.1-4.3
				c5.2-2.9,8.8-7,11.1-12.4c2.2-5.4,3.3-11.9,3.3-19.6c0-7.6-1.1-14.1-3.3-19.5c-2.2-5.5-5.9-9.6-11.1-12.6
				c-5.2-2.9-12.2-4.4-21.1-4.4H646V538.2z"/>
			<path class="st2" d="M741.9,554.9V448.8h38.9c8.5,0,15.5,1.4,21,4.3c5.5,2.9,9.6,6.8,12.4,11.7c2.7,4.9,4.1,10.3,4.1,16.3
				c0,6.5-1.7,12.4-5.1,17.7c-3.4,5.4-8.7,9.2-15.8,11.7l22,44.4h-22.3L777.4,513h-16.1v41.8H741.9z M761.3,498.8h18.3
				c6.5,0,11.2-1.6,14.2-4.7c3-3.1,4.5-7.3,4.5-12.4c0-5.1-1.5-9.1-4.5-12.1c-3-3-7.8-4.5-14.5-4.5h-18.2V498.8z"/>
			<path class="st2" d="M837.1,554.9l38.8-106.1h21.8l38.8,106.1h-20.6l-8.5-24.6H866l-8.6,24.6H837.1z M871.3,515.2h30.8
				l-15.5-44.1L871.3,515.2z"/>
		</g>
		<path class="st2" d="M191.9,534c-0.1,11.9-9.8,21.5-21.7,21.5h-63.3c-12,0-21.7-9.7-21.7-21.7v-63.3c0-12,9.7-21.7,21.7-21.7h19.2
			c-3.9,8-6.1,16.9-6.1,26.4c0,33.2,26.9,60,60,60C184.1,535.2,188,534.8,191.9,534z"/>
		<path class="st3" d="M191.9,470.5v63.3c0,0.1,0,0.1,0,0.2c-3.8,0.8-7.8,1.2-11.9,1.2c-33.2,0-60-26.9-60-60
			c0-9.5,2.2-18.4,6.1-26.4h44.1C182.2,448.8,191.9,458.5,191.9,470.5z"/>
		<g>
			<circle class="st4" cx="105.9" cy="472.1" r="7.5"/>
			<circle class="st4" cx="180" cy="482.7" r="7.5"/>
			<path class="st4" d="M183.7,492.6c0,0,2.8,1.2,2.1,6.4c-0.7,5.1-5.2,11.6-8.8,12.3c-3.6,0.7-13.6-8.3-14.6-10.9
				c-1-2.6,3.5,0.9,8.3,2.7c4.7,1.9,5.5,2.6,6.3,0.1C179.2,496.1,181.2,491.1,183.7,492.6z"/>
			<path class="st4" d="M167.9,523.1c-1.1,5.3-5.7,21.1-8.6,32.4h-1.8c0.3-11.6,1-30.9,1.9-35.2c1.3-6.3,4.3-7.5,5.8-7.2
				C166.7,513.4,169.3,516.2,167.9,523.1z"/>
			<path class="st4" d="M107.6,496.2c0,0,32.6,14.3,42,16.2c9.3,1.9,11,0.3,11.4-1.5c0.4-1.8-1.8-5.4-8.8-7.2
				C145.1,501.9,115.4,495.9,107.6,496.2z"/>
			<path class="st4" d="M143.3,492.3c0,0-25.1-1.1-30.7-2.2c-5.7-1.2-5.6-3.3-5.5-4.6c0.1-1.3,2.5-3.2,7.3-2.2
				S139.2,489.9,143.3,492.3z"/>
			<path class="st4" d="M134.8,481.1c0,0,17,6.9,21.7,9.2c4.7,2.3,11.9,4,12.5,0.2c0.5-3.8-8.4-5.3-13.3-6.4
				C150.7,482.9,139.6,480.7,134.8,481.1z"/>
			<path class="st4" d="M95.4,514.2c-1.9,0.9-5.7,2.2-10.2,3.6v-9.3c0.7-0.4,1.4-0.7,2.2-1.1c10.5-5.2,11.5-0.9,11.5-0.9
				S102.1,510.9,95.4,514.2z"/>
			<path class="st4" d="M97.5,487.9c-3,2-12.2,1.2-12.3,4.2c-0.2,3,10.3,9.6,10.3,9.6c-4.1-1.3-7.7-2.8-10.3-4.3V486
				c1.4-0.7,3.1-1.5,5-2.4c7.5-3.4,8.7-0.1,8.7-0.1S100.5,486,97.5,487.9z"/>
			<path class="st4" d="M116.7,538.2c0,0,3.4-21.7,2.8-21.9c-0.6-0.3-17.5,0.1-17.6-6.1s13-4.4,18-2.5c5,1.9,7.9,5.2,6.6,10
				C125.3,522.5,120,532.8,116.7,538.2z"/>
		</g>
	</g>
</g>
<g id="Finish_Blue">
	<g id="Blue" class="st0">
		<g class="st1">
			<path class="st2" d="M230,554.9V448.8h19.4v90.9h47v15.2H230z"/>
			<path class="st2" d="M333.4,554.9v-37.7l-35.6-68.3h22l23.5,48.9l23.3-48.9h21.7l-35.5,68.3v37.7H333.4z"/>
			<path class="st2" d="M389.1,554.9l38.8-106.1h21.8l38.8,106.1h-20.6l-8.5-24.6h-41.4l-8.6,24.6H389.1z M423.4,515.2h30.8
				l-15.5-44.1L423.4,515.2z"/>
			<path class="st2" d="M509.7,554.9V448.8h19.4l49.9,74.7v-74.7h19.4v106.1H579l-49.9-74.6v74.6H509.7z"/>
			<path class="st2" d="M626.6,554.9V448.8h36.2c12.4,0,22.7,2.2,30.7,6.6c8,4.4,14,10.6,17.9,18.5c3.9,7.9,5.8,17.3,5.8,28
				c0,10.7-1.9,20-5.8,28c-3.9,7.9-9.9,14.1-17.9,18.5c-8,4.4-18.3,6.6-30.7,6.6H626.6z M646,538.2h15.9c8.9,0,15.9-1.4,21.1-4.3
				c5.2-2.9,8.8-7,11.1-12.4c2.2-5.4,3.3-11.9,3.3-19.6c0-7.6-1.1-14.1-3.3-19.5c-2.2-5.5-5.9-9.6-11.1-12.6
				c-5.2-2.9-12.2-4.4-21.1-4.4H646V538.2z"/>
			<path class="st2" d="M741.9,554.9V448.8h38.9c8.5,0,15.5,1.4,21,4.3c5.5,2.9,9.6,6.8,12.4,11.7c2.7,4.9,4.1,10.3,4.1,16.3
				c0,6.5-1.7,12.4-5.1,17.7c-3.4,5.4-8.7,9.2-15.8,11.7l22,44.4h-22.3L777.4,513h-16.1v41.8H741.9z M761.3,498.8h18.3
				c6.5,0,11.2-1.6,14.2-4.7c3-3.1,4.5-7.3,4.5-12.4c0-5.1-1.5-9.1-4.5-12.1c-3-3-7.8-4.5-14.5-4.5h-18.2V498.8z"/>
			<path class="st2" d="M837.1,554.9l38.8-106.1h21.8l38.8,106.1h-20.6l-8.5-24.6H866l-8.6,24.6H837.1z M871.3,515.2h30.8
				l-15.5-44.1L871.3,515.2z"/>
		</g>
		<path class="st5" d="M191.9,534c-0.1,11.9-9.8,21.5-21.7,21.5h-63.3c-12,0-21.7-9.7-21.7-21.7v-63.3c0-12,9.7-21.7,21.7-21.7h19.2
			c-3.9,8-6.1,16.9-6.1,26.4c0,33.2,26.9,60,60,60C184.1,535.2,188,534.8,191.9,534z"/>
		<path class="st6" d="M191.9,470.5v63.3c0,0.1,0,0.1,0,0.2c-3.8,0.8-7.8,1.2-11.9,1.2c-33.2,0-60-26.9-60-60
			c0-9.5,2.2-18.4,6.1-26.4h44.1C182.2,448.8,191.9,458.5,191.9,470.5z"/>
		<g class="st1">
			<circle class="st4" cx="105.9" cy="472.1" r="7.5"/>
			<circle class="st4" cx="180" cy="482.7" r="7.5"/>
			<path class="st4" d="M183.7,492.6c0,0,2.8,1.2,2.1,6.4c-0.7,5.1-5.2,11.6-8.8,12.3c-3.6,0.7-13.6-8.3-14.6-10.9
				c-1-2.6,3.5,0.9,8.3,2.7c4.7,1.9,5.5,2.6,6.3,0.1C179.2,496.1,181.2,491.1,183.7,492.6z"/>
			<path class="st4" d="M167.9,523.1c-1.1,5.3-5.7,21.1-8.6,32.4h-1.8c0.3-11.6,1-30.9,1.9-35.2c1.3-6.3,4.3-7.5,5.8-7.2
				C166.7,513.4,169.3,516.2,167.9,523.1z"/>
			<path class="st4" d="M107.6,496.2c0,0,32.6,14.3,42,16.2c9.3,1.9,11,0.3,11.4-1.5c0.4-1.8-1.8-5.4-8.8-7.2
				C145.1,501.9,115.4,495.9,107.6,496.2z"/>
			<path class="st4" d="M143.3,492.3c0,0-25.1-1.1-30.7-2.2c-5.7-1.2-5.6-3.3-5.5-4.6c0.1-1.3,2.5-3.2,7.3-2.2
				S139.2,489.9,143.3,492.3z"/>
			<path class="st4" d="M134.8,481.1c0,0,17,6.9,21.7,9.2c4.7,2.3,11.9,4,12.5,0.2c0.5-3.8-8.4-5.3-13.3-6.4
				C150.7,482.9,139.6,480.7,134.8,481.1z"/>
			<path class="st4" d="M95.4,514.2c-1.9,0.9-5.7,2.2-10.2,3.6v-9.3c0.7-0.4,1.4-0.7,2.2-1.1c10.5-5.2,11.5-0.9,11.5-0.9
				S102.1,510.9,95.4,514.2z"/>
			<path class="st4" d="M97.5,487.9c-3,2-12.2,1.2-12.3,4.2c-0.2,3,10.3,9.6,10.3,9.6c-4.1-1.3-7.7-2.8-10.3-4.3V486
				c1.4-0.7,3.1-1.5,5-2.4c7.5-3.4,8.7-0.1,8.7-0.1S100.5,486,97.5,487.9z"/>
			<path class="st4" d="M116.7,538.2c0,0,3.4-21.7,2.8-21.9c-0.6-0.3-17.5,0.1-17.6-6.1s13-4.4,18-2.5c5,1.9,7.9,5.2,6.6,10
				C125.3,522.5,120,532.8,116.7,538.2z"/>
		</g>
	</g>
	<g>
		<path class="st2" d="M340.2,534c-0.2,23.8-19.5,43-43.4,43H170.7c-24,0-43.4-19.4-43.4-43.4V407.4c0-24,19.4-43.4,43.4-43.4h38.2
			c-7.8,15.9-12.1,33.7-12.1,52.6c0,66.1,53.6,119.7,119.7,119.7C324.6,536.4,332.5,535.5,340.2,534z"/>
		<path class="st3" d="M340.2,407.4v126.2c0,0.1,0,0.3,0,0.4c-7.7,1.5-15.6,2.4-23.7,2.4c-66.1,0-119.7-53.6-119.7-119.7
			c0-18.9,4.4-36.7,12.1-52.6h87.9C320.8,364.1,340.2,383.5,340.2,407.4z"/>
		<g>
			<circle class="st4" cx="168.6" cy="410.6" r="15"/>
			<circle class="st4" cx="316.5" cy="431.7" r="15"/>
			<path class="st4" d="M323.8,451.4c0,0,5.5,2.4,4.2,12.7c-1.3,10.2-10.4,23.2-17.5,24.6s-27.1-16.6-29.1-21.7
				c-2.1-5.2,7,1.7,16.5,5.5c9.5,3.8,11,5.1,12.6,0.2C314.9,458.4,318.8,448.4,323.8,451.4z"/>
			<path class="st4" d="M292.3,512.3c-2.2,10.5-11.4,42.2-17.1,64.6h-3.6c0.6-23.1,1.9-61.5,3.7-70.2c2.6-12.6,8.6-15,11.6-14.4
				C290,492.9,295.2,498.5,292.3,512.3z"/>
			<path class="st4" d="M172.1,458.5c0,0,65,28.6,83.7,32.4s21.9,0.6,22.7-3c0.7-3.5-3.6-10.7-17.5-14.4
				C246.9,469.9,187.7,458,172.1,458.5z"/>
			<path class="st4" d="M243.3,450.9c0,0-50-2.1-61.3-4.4c-11.3-2.3-11.3-6.5-11-9.1c0.3-2.6,5-6.3,14.5-4.4
				C195.1,435,235.1,446.1,243.3,450.9z"/>
			<path class="st4" d="M226.3,428.4c0,0,33.9,13.8,43.2,18.3c9.3,4.5,23.8,8,24.9,0.4c1-7.7-16.7-10.5-26.5-12.8
				S235.9,427.8,226.3,428.4z"/>
			<path class="st4" d="M147.7,494.6c-3.8,1.9-11.4,4.5-20.4,7.2v-18.5c1.4-0.7,2.9-1.5,4.3-2.2c21-10.4,23-1.9,23-1.9
				S161.2,487.9,147.7,494.6z"/>
			<path class="st4" d="M152,442.1c-6.1,3.9-24.3,2.5-24.6,8.5c-0.3,6,20.5,19,20.5,19c-8.3-2.7-15.3-5.6-20.6-8.6v-22.8
				c2.8-1.5,6.1-3,10-4.8c14.9-6.8,17.4-0.3,17.4-0.3S158,438.2,152,442.1z"/>
			<path class="st4" d="M190.3,542.3c0,0,6.8-43.2,5.6-43.8c-1.2-0.5-35,0.2-35-12.2c-0.1-12.4,26-8.9,35.9-5
				c10,3.9,15.7,10.3,13.2,20S196.7,531.5,190.3,542.3z"/>
		</g>
	</g>
	<g>
		<g>
			<g>
				<polygon class="st2" points="393,364.1 380,364.1 380,435.2 424.5,435.2 424.5,425 393,425 				"/>
				<polygon class="st2" points="455.9,396.9 440.1,364.1 425.4,364.1 449.3,409.9 449.3,435.2 462.3,435.2 462.3,409.9 486,364.1 
					471.5,364.1 				"/>
				<path class="st2" d="M512.6,364.1l-26,71.1h13.6l5.8-16.5h27.7l5.7,16.5h13.8l-26-71.1H512.6z M509.6,408.6l10.3-29.6l10.4,29.6
					H509.6z"/>
				<polygon class="st2" points="613.9,414.2 580.5,364.1 567.5,364.1 567.5,435.2 580.5,435.2 580.5,385.2 613.9,435.2 
					626.9,435.2 626.9,364.1 613.9,364.1 				"/>
				<path class="st2" d="M690.7,368.5c-5.4-2.9-12.2-4.4-20.6-4.4h-24.3v71.1h24.3c8.3,0,15.2-1.5,20.6-4.4s9.4-7.1,12-12.4
					c2.6-5.3,3.9-11.6,3.9-18.7c0-7.2-1.3-13.4-3.9-18.7C700.1,375.6,696.1,371.4,690.7,368.5z M691.1,412.8c-1.5,3.6-4,6.4-7.4,8.3
					c-3.5,1.9-8.2,2.9-14.1,2.9h-10.7v-48.9h10.7c6,0,10.7,1,14.1,2.9c3.5,2,5.9,4.8,7.4,8.4c1.5,3.7,2.2,8,2.2,13.1
					C693.3,404.8,692.5,409.2,691.1,412.8z"/>
				<path class="st2" d="M771,397.6c2.3-3.6,3.4-7.6,3.4-11.9c0-4-0.9-7.6-2.7-10.9c-1.8-3.3-4.6-5.9-8.3-7.8
					c-3.7-1.9-8.4-2.9-14.1-2.9h-26.1v71.1h13v-28h10.8l13.2,28h14.9l-14.7-29.8C765.2,403.8,768.7,401.2,771,397.6z M758,394.4
					c-2,2.1-5.2,3.1-9.6,3.1h-12.3v-22.7h12.2c4.5,0,7.7,1,9.7,3c2,2,3,4.7,3,8.1C761.1,389.6,760,392.3,758,394.4z"/>
				<path class="st2" d="M827.6,364.1H813l-26,71.1h13.6l5.8-16.5h27.7l5.7,16.5h13.8L827.6,364.1z M809.9,408.6l10.3-29.6
					l10.4,29.6H809.9z"/>
			</g>
		</g>
		<g>
			<path class="st2" d="M420.4,459c-3.7-1.9-8.4-2.8-14.1-2.8H380v71.1h13v-27.5h13.3c5.8,0,10.6-1,14.3-3c3.7-2,6.5-4.6,8.2-7.9
				c1.8-3.3,2.6-6.9,2.6-10.8c0-4.1-0.9-7.9-2.7-11.2C426.9,463.5,424.1,460.9,420.4,459z M415.3,486.2c-2,2-5.3,3-9.8,3H393v-22.5
				h12.5c4.5,0,7.8,1,9.8,3c2,2,3,4.8,3,8.3C418.3,481.4,417.3,484.2,415.3,486.2z"/>
			<path class="st2" d="M494.5,489.7c2.3-3.6,3.4-7.6,3.4-11.9c0-4-0.9-7.6-2.7-10.9c-1.8-3.3-4.6-5.9-8.3-7.8
				c-3.7-1.9-8.4-2.9-14.1-2.9h-26.1v71.1h13v-28h10.8l13.2,28h14.9l-14.7-29.8C488.7,495.9,492.2,493.3,494.5,489.7z M481.6,486.5
				c-2,2.1-5.2,3.1-9.6,3.1h-12.3V467h12.2c4.5,0,7.7,1,9.7,3c2,2,3,4.7,3,8.1C484.6,481.6,483.6,484.4,481.6,486.5z"/>
			<path class="st2" d="M567,459.6c-5.4-3.1-11.5-4.7-18.6-4.7c-7.1,0-13.3,1.6-18.6,4.7c-5.3,3.1-9.5,7.4-12.5,13
				c-3,5.5-4.5,11.9-4.5,19.2c0,7.2,1.5,13.6,4.5,19.2c3,5.5,7.2,9.8,12.5,13c5.3,3.1,11.5,4.7,18.6,4.7c7,0,13.2-1.6,18.6-4.7
				c5.3-3.1,9.5-7.4,12.5-13c3-5.5,4.5-11.9,4.5-19.2c0-7.2-1.5-13.6-4.5-19.2C576.5,467,572.4,462.7,567,459.6z M564.6,510.1
				c-4,4.5-9.4,6.7-16.2,6.7c-6.8,0-12.2-2.2-16.3-6.7c-4.1-4.5-6.1-10.6-6.1-18.4s2-13.9,6.1-18.4c4.1-4.5,9.5-6.7,16.3-6.7
				c6.8,0,12.2,2.2,16.2,6.7c4,4.5,6,10.6,6,18.4S568.6,505.6,564.6,510.1z"/>
			<path class="st2" d="M627.8,506.7c0,3-0.7,5.5-2.1,7.4c-1.4,1.9-3.7,2.8-6.8,2.8c-3.3,0-5.7-1-7.2-2.9c-1.5-2-2.3-4.6-2.3-7.9
				h-13c0,7.2,2.1,12.7,6.2,16.6c4.2,3.9,9.7,5.8,16.6,5.8c6.6,0,11.9-1.9,15.8-5.6c3.9-3.8,5.8-9.1,5.8-16.1v-50.6h-13V506.7z"/>
			<g>
				<path class="st2" d="M672.7,466.6v19.5H703v10.2h-30.4v18.8c-4.4,2.4-8.8,4.9-13,7.5v-66.4h46.4v10.5H672.7z"/>
				<path class="st3" d="M706.1,516.8v10.5h-46.4v-4.7c4.2-2.6,8.6-5.1,13-7.5v1.7H706.1z"/>
			</g>
			<g>
				<path class="st2" d="M786.9,479.1h-14.3c-0.9-3.9-2.8-6.9-5.6-9.1c-2.9-2.2-6.7-3.3-11.4-3.3c-6.6,0-11.7,2.2-15.4,6.7
					c-3.7,4.5-5.6,10.6-5.6,18.4c0,0.4,0,0.8,0,1.3c-4.4,0.9-8.8,1.9-13.1,3h0c-0.1-1.4-0.2-2.8-0.2-4.3c0-7.2,1.4-13.7,4.2-19.2
					c2.8-5.5,6.7-9.9,11.9-13c5.1-3.1,11.3-4.7,18.5-4.7c8.5,0,15.5,2.1,21,6.3C782.1,465.5,785.5,471.4,786.9,479.1z"/>
				<path class="st3" d="M786.9,505.1c-1.4,7.3-4.8,13-10.2,17.2c-5.5,4.1-12.5,6.2-21,6.2c-7.2,0-13.3-1.5-18.5-4.6
					c-5.1-3.1-9.1-7.4-11.9-12.9c-2.2-4.4-3.5-9.4-4-14.9c4.3-1.1,8.7-2.1,13.1-3c0.2,7.2,2.1,12.9,5.6,17.1
					c3.7,4.4,8.9,6.6,15.4,6.6c4.8,0,8.6-1,11.4-3.1c2.9-2.1,4.8-4.9,5.6-8.6H786.9z"/>
			</g>
			<g>
				<path class="st2" d="M852.9,456.1v10.5h-20.8v28.7c-4.3-1.1-8.6-2-13-2.8v-25.9h-20.7v-10.5H852.9z"/>
				<path class="st3" d="M832.1,495.3v32h-13v-34.8C823.5,493.3,827.8,494.2,832.1,495.3z"/>
			</g>
		</g>
		<g>
			<path class="st3" d="M380,577v-28.3h18.5v4.2h-13.3v7.8h12.1v4h-12.1v8.2h13.3v4.2H380z"/>
			<path class="st3" d="M419.6,577l-10.3-28.3h5.5l8,23l8-23h5.5L425.9,577H419.6z"/>
			<path class="st3" d="M447.7,577v-28.3h18.5v4.2h-13.3v7.8h12.1v4h-12.1v8.2h13.3v4.2H447.7z"/>
			<path class="st3" d="M479.1,577v-28.3h5.2l13.3,19.9v-19.9h5.2V577h-5.2l-13.3-19.9V577H479.1z"/>
			<path class="st3" d="M522.9,577v-24.1h-8.2v-4.2h21.7v4.2h-8.3V577H522.9z"/>
			<path class="st3" d="M579.2,577.4c-2.8,0-5.3-0.6-7.4-1.9c-2.1-1.2-3.8-3-5-5.1c-1.2-2.2-1.8-4.7-1.8-7.6s0.6-5.4,1.8-7.6
				s2.9-3.9,5-5.1c2.1-1.2,4.6-1.9,7.4-1.9c2.8,0,5.3,0.6,7.4,1.9c2.1,1.2,3.8,3,5,5.1c1.2,2.2,1.8,4.7,1.8,7.6s-0.6,5.4-1.8,7.6
				c-1.2,2.2-2.8,3.9-5,5.1S582,577.4,579.2,577.4z M579.2,572.8c2.7,0,4.8-0.9,6.4-2.7c1.6-1.8,2.4-4.2,2.4-7.3s-0.8-5.5-2.4-7.3
				c-1.6-1.8-3.7-2.7-6.4-2.7s-4.8,0.9-6.5,2.7c-1.6,1.8-2.4,4.2-2.4,7.3s0.8,5.5,2.4,7.3C574.3,571.9,576.5,572.8,579.2,572.8z"/>
			<path class="st3" d="M606,577v-28.3h10.4c2.3,0,4.1,0.4,5.6,1.2c1.5,0.8,2.6,1.8,3.3,3.1c0.7,1.3,1.1,2.8,1.1,4.3
				c0,1.7-0.5,3.3-1.4,4.7c-0.9,1.4-2.3,2.5-4.2,3.1l5.9,11.8h-5.9l-5.3-11.1h-4.3V577H606z M611.1,562h4.9c1.7,0,3-0.4,3.8-1.3
				c0.8-0.8,1.2-1.9,1.2-3.3c0-1.3-0.4-2.4-1.2-3.2c-0.8-0.8-2.1-1.2-3.9-1.2h-4.8V562z"/>
			<path class="st3" d="M651.6,577.4c-2.7,0-5-0.6-7-1.8c-2-1.2-3.5-2.9-4.6-5.1c-1.1-2.2-1.7-4.7-1.7-7.6c0-2.9,0.6-5.5,1.7-7.7
				c1.1-2.2,2.8-4,4.9-5.2c2.1-1.3,4.6-1.9,7.5-1.9c3.3,0,6.1,0.8,8.2,2.4c2.2,1.6,3.6,3.8,4.2,6.6h-5.8c-0.4-1.3-1.2-2.3-2.3-3.1
				c-1.1-0.7-2.6-1.1-4.4-1.1c-2.8,0-5,0.9-6.5,2.7c-1.5,1.8-2.3,4.2-2.3,7.4s0.8,5.5,2.3,7.2c1.5,1.7,3.6,2.6,6.2,2.6
				c2.6,0,4.5-0.7,5.8-2.1s2.1-3.2,2.4-5.5h-7.1v-3.9h12.4V577h-4.8l-0.4-3.7c-0.9,1.3-2.1,2.4-3.4,3.1
				C655.4,577.1,653.7,577.4,651.6,577.4z"/>
			<path class="st3" d="M676.7,577l10.3-28.3h5.8l10.3,28.3h-5.5l-2.3-6.5h-11l-2.3,6.5H676.7z M685.8,566.4h8.2l-4.1-11.8
				L685.8,566.4z"/>
			<path class="st3" d="M714.9,577v-28.3h5.2l13.3,19.9v-19.9h5.2V577h-5.2l-13.3-19.9V577H714.9z"/>
			<path class="st3" d="M752.1,577v-28.3h5.2V577H752.1z"/>
			<path class="st3" d="M770,577v-4l13-20h-12.9v-4.3H789v4l-13.1,20H789v4.3H770z"/>
			<path class="st3" d="M801.8,577v-28.3h18.5v4.2h-13.3v7.8H819v4h-12.1v8.2h13.3v4.2H801.8z"/>
			<path class="st3" d="M833.2,577v-28.3h10.4c2.3,0,4.1,0.4,5.6,1.2c1.5,0.8,2.6,1.8,3.3,3.1c0.7,1.3,1.1,2.8,1.1,4.3
				c0,1.7-0.5,3.3-1.4,4.7c-0.9,1.4-2.3,2.5-4.2,3.1l5.9,11.8h-5.9l-5.3-11.1h-4.3V577H833.2z M838.4,562h4.9c1.7,0,3-0.4,3.8-1.3
				c0.8-0.8,1.2-1.9,1.2-3.3c0-1.3-0.4-2.4-1.2-3.2c-0.8-0.8-2.1-1.2-3.9-1.2h-4.8V562z"/>
		</g>
	</g>
</g>
<g id="Finish_White" class="st0">
	<g id="Blue_1_">
		<g class="st1">
			<path class="st2" d="M230,554.9V448.8h19.4v90.9h47v15.2H230z"/>
			<path class="st2" d="M333.4,554.9v-37.7l-35.6-68.3h22l23.5,48.9l23.3-48.9h21.7l-35.5,68.3v37.7H333.4z"/>
			<path class="st2" d="M389.1,554.9l38.8-106.1h21.8l38.8,106.1h-20.6l-8.5-24.6h-41.4l-8.6,24.6H389.1z M423.4,515.2h30.8
				l-15.5-44.1L423.4,515.2z"/>
			<path class="st2" d="M509.7,554.9V448.8h19.4l49.9,74.7v-74.7h19.4v106.1H579l-49.9-74.6v74.6H509.7z"/>
			<path class="st2" d="M626.6,554.9V448.8h36.2c12.4,0,22.7,2.2,30.7,6.6c8,4.4,14,10.6,17.9,18.5c3.9,7.9,5.8,17.3,5.8,28
				c0,10.7-1.9,20-5.8,28c-3.9,7.9-9.9,14.1-17.9,18.5c-8,4.4-18.3,6.6-30.7,6.6H626.6z M646,538.2h15.9c8.9,0,15.9-1.4,21.1-4.3
				c5.2-2.9,8.8-7,11.1-12.4c2.2-5.4,3.3-11.9,3.3-19.6c0-7.6-1.1-14.1-3.3-19.5c-2.2-5.5-5.9-9.6-11.1-12.6
				c-5.2-2.9-12.2-4.4-21.1-4.4H646V538.2z"/>
			<path class="st2" d="M741.9,554.9V448.8h38.9c8.5,0,15.5,1.4,21,4.3c5.5,2.9,9.6,6.8,12.4,11.7c2.7,4.9,4.1,10.3,4.1,16.3
				c0,6.5-1.7,12.4-5.1,17.7c-3.4,5.4-8.7,9.2-15.8,11.7l22,44.4h-22.3L777.4,513h-16.1v41.8H741.9z M761.3,498.8h18.3
				c6.5,0,11.2-1.6,14.2-4.7c3-3.1,4.5-7.3,4.5-12.4c0-5.1-1.5-9.1-4.5-12.1c-3-3-7.8-4.5-14.5-4.5h-18.2V498.8z"/>
			<path class="st2" d="M837.1,554.9l38.8-106.1h21.8l38.8,106.1h-20.6l-8.5-24.6H866l-8.6,24.6H837.1z M871.3,515.2h30.8
				l-15.5-44.1L871.3,515.2z"/>
		</g>
		<path class="st5" d="M191.9,534c-0.1,11.9-9.8,21.5-21.7,21.5h-63.3c-12,0-21.7-9.7-21.7-21.7v-63.3c0-12,9.7-21.7,21.7-21.7h19.2
			c-3.9,8-6.1,16.9-6.1,26.4c0,33.2,26.9,60,60,60C184.1,535.2,188,534.8,191.9,534z"/>
		<path class="st6" d="M191.9,470.5v63.3c0,0.1,0,0.1,0,0.2c-3.8,0.8-7.8,1.2-11.9,1.2c-33.2,0-60-26.9-60-60
			c0-9.5,2.2-18.4,6.1-26.4h44.1C182.2,448.8,191.9,458.5,191.9,470.5z"/>
		<g class="st1">
			<circle class="st4" cx="105.9" cy="472.1" r="7.5"/>
			<circle class="st4" cx="180" cy="482.7" r="7.5"/>
			<path class="st4" d="M183.7,492.6c0,0,2.8,1.2,2.1,6.4c-0.7,5.1-5.2,11.6-8.8,12.3c-3.6,0.7-13.6-8.3-14.6-10.9
				c-1-2.6,3.5,0.9,8.3,2.7c4.7,1.9,5.5,2.6,6.3,0.1C179.2,496.1,181.2,491.1,183.7,492.6z"/>
			<path class="st4" d="M167.9,523.1c-1.1,5.3-5.7,21.1-8.6,32.4h-1.8c0.3-11.6,1-30.9,1.9-35.2c1.3-6.3,4.3-7.5,5.8-7.2
				C166.7,513.4,169.3,516.2,167.9,523.1z"/>
			<path class="st4" d="M107.6,496.2c0,0,32.6,14.3,42,16.2c9.3,1.9,11,0.3,11.4-1.5c0.4-1.8-1.8-5.4-8.8-7.2
				C145.1,501.9,115.4,495.9,107.6,496.2z"/>
			<path class="st4" d="M143.3,492.3c0,0-25.1-1.1-30.7-2.2c-5.7-1.2-5.6-3.3-5.5-4.6c0.1-1.3,2.5-3.2,7.3-2.2
				S139.2,489.9,143.3,492.3z"/>
			<path class="st4" d="M134.8,481.1c0,0,17,6.9,21.7,9.2c4.7,2.3,11.9,4,12.5,0.2c0.5-3.8-8.4-5.3-13.3-6.4
				C150.7,482.9,139.6,480.7,134.8,481.1z"/>
			<path class="st4" d="M95.4,514.2c-1.9,0.9-5.7,2.2-10.2,3.6v-9.3c0.7-0.4,1.4-0.7,2.2-1.1c10.5-5.2,11.5-0.9,11.5-0.9
				S102.1,510.9,95.4,514.2z"/>
			<path class="st4" d="M97.5,487.9c-3,2-12.2,1.2-12.3,4.2c-0.2,3,10.3,9.6,10.3,9.6c-4.1-1.3-7.7-2.8-10.3-4.3V486
				c1.4-0.7,3.1-1.5,5-2.4c7.5-3.4,8.7-0.1,8.7-0.1S100.5,486,97.5,487.9z"/>
			<path class="st4" d="M116.7,538.2c0,0,3.4-21.7,2.8-21.9c-0.6-0.3-17.5,0.1-17.6-6.1s13-4.4,18-2.5c5,1.9,7.9,5.2,6.6,10
				C125.3,522.5,120,532.8,116.7,538.2z"/>
		</g>
	</g>
	<g class="st1">
		<path class="st7" d="M340.2,534c-0.2,23.8-19.5,43-43.4,43H170.7c-24,0-43.4-19.4-43.4-43.4V407.4c0-24,19.4-43.4,43.4-43.4h38.2
			c-7.8,15.9-12.1,33.7-12.1,52.6c0,66.1,53.6,119.7,119.7,119.7C324.6,536.4,332.5,535.5,340.2,534z"/>
		<path class="st8" d="M340.2,407.4v126.2c0,0.1,0,0.3,0,0.4c-7.7,1.5-15.6,2.4-23.7,2.4c-66.1,0-119.7-53.6-119.7-119.7
			c0-18.9,4.4-36.7,12.1-52.6h87.9C320.8,364.1,340.2,383.5,340.2,407.4z"/>
		<g>
			<g>
				<circle class="st9" cx="168.6" cy="410.6" r="15"/>
				<circle class="st9" cx="316.5" cy="431.7" r="15"/>
				<path class="st9" d="M323.8,451.4c0,0,5.5,2.4,4.2,12.7c-1.3,10.2-10.4,23.2-17.5,24.6s-27.1-16.6-29.1-21.7
					c-2.1-5.2,7,1.7,16.5,5.5c9.5,3.8,11,5.1,12.6,0.2C314.9,458.4,318.8,448.4,323.8,451.4z"/>
				<path class="st9" d="M292.3,512.3c-2.2,10.5-11.4,42.2-17.1,64.6h-3.6c0.6-23.1,1.9-61.5,3.7-70.2c2.6-12.6,8.6-15,11.6-14.4
					C290,492.9,295.2,498.5,292.3,512.3z"/>
				<path class="st9" d="M172.1,458.5c0,0,65,28.6,83.7,32.4s21.9,0.6,22.7-3c0.7-3.5-3.6-10.7-17.5-14.4
					C246.9,469.9,187.7,458,172.1,458.5z"/>
				<path class="st9" d="M243.3,450.9c0,0-50-2.1-61.3-4.4c-11.3-2.3-11.3-6.5-11-9.1c0.3-2.6,5-6.3,14.5-4.4
					C195.1,435,235.1,446.1,243.3,450.9z"/>
				<path class="st9" d="M226.3,428.4c0,0,33.9,13.8,43.2,18.3c9.3,4.5,23.8,8,24.9,0.4c1-7.7-16.7-10.5-26.5-12.8
					S235.9,427.8,226.3,428.4z"/>
				<path class="st9" d="M147.7,494.6c-3.8,1.9-11.4,4.5-20.4,7.2v-18.5c1.4-0.7,2.9-1.5,4.3-2.2c21-10.4,23-1.9,23-1.9
					S161.2,487.9,147.7,494.6z"/>
				<path class="st9" d="M152,442.1c-6.1,3.9-24.3,2.5-24.6,8.5c-0.3,6,20.5,19,20.5,19c-8.3-2.7-15.3-5.6-20.6-8.6v-22.8
					c2.8-1.5,6.1-3,10-4.8c14.9-6.8,17.4-0.3,17.4-0.3S158,438.2,152,442.1z"/>
				<path class="st9" d="M190.3,542.3c0,0,6.8-43.2,5.6-43.8c-1.2-0.5-35,0.2-35-12.2c-0.1-12.4,26-8.9,35.9-5
					c10,3.9,15.7,10.3,13.2,20S196.7,531.5,190.3,542.3z"/>
			</g>
		</g>
	</g>
	<g class="st1">
		<g>
			<g>
				<polygon class="st7" points="393,364.1 380,364.1 380,435.2 424.5,435.2 424.5,425 393,425 				"/>
				<polygon class="st7" points="455.9,396.9 440.1,364.1 425.4,364.1 449.3,409.9 449.3,435.2 462.3,435.2 462.3,409.9 486,364.1 
					471.5,364.1 				"/>
				<path class="st7" d="M512.6,364.1l-26,71.1h13.6l5.8-16.5h27.7l5.7,16.5h13.8l-26-71.1H512.6z M509.6,408.6l10.3-29.6l10.4,29.6
					H509.6z"/>
				<polygon class="st7" points="613.9,414.2 580.5,364.1 567.5,364.1 567.5,435.2 580.5,435.2 580.5,385.2 613.9,435.2 
					626.9,435.2 626.9,364.1 613.9,364.1 				"/>
				<path class="st7" d="M690.7,368.5c-5.4-2.9-12.2-4.4-20.6-4.4h-24.3v71.1h24.3c8.3,0,15.2-1.5,20.6-4.4s9.4-7.1,12-12.4
					c2.6-5.3,3.9-11.6,3.9-18.7c0-7.2-1.3-13.4-3.9-18.7C700.1,375.6,696.1,371.4,690.7,368.5z M691.1,412.8c-1.5,3.6-4,6.4-7.4,8.3
					c-3.5,1.9-8.2,2.9-14.1,2.9h-10.7v-48.9h10.7c6,0,10.7,1,14.1,2.9c3.5,2,5.9,4.8,7.4,8.4c1.5,3.7,2.2,8,2.2,13.1
					C693.3,404.8,692.5,409.2,691.1,412.8z"/>
				<path class="st7" d="M771,397.6c2.3-3.6,3.4-7.6,3.4-11.9c0-4-0.9-7.6-2.7-10.9c-1.8-3.3-4.6-5.9-8.3-7.8
					c-3.7-1.9-8.4-2.9-14.1-2.9h-26.1v71.1h13v-28h10.8l13.2,28h14.9l-14.7-29.8C765.2,403.8,768.7,401.2,771,397.6z M758,394.4
					c-2,2.1-5.2,3.1-9.6,3.1h-12.3v-22.7h12.2c4.5,0,7.7,1,9.7,3c2,2,3,4.7,3,8.1C761.1,389.6,760,392.3,758,394.4z"/>
				<path class="st7" d="M827.6,364.1H813l-26,71.1h13.6l5.8-16.5h27.7l5.7,16.5h13.8L827.6,364.1z M809.9,408.6l10.3-29.6
					l10.4,29.6H809.9z"/>
			</g>
		</g>
		<g>
			<g>
				<path class="st7" d="M420.4,459c-3.7-1.9-8.4-2.8-14.1-2.8H380v71.1h13v-27.5h13.3c5.8,0,10.6-1,14.3-3c3.7-2,6.5-4.6,8.2-7.9
					c1.8-3.3,2.6-6.9,2.6-10.8c0-4.1-0.9-7.9-2.7-11.2C426.9,463.5,424.1,460.9,420.4,459z M415.3,486.2c-2,2-5.3,3-9.8,3H393v-22.5
					h12.5c4.5,0,7.8,1,9.8,3c2,2,3,4.8,3,8.3C418.3,481.4,417.3,484.2,415.3,486.2z"/>
				<path class="st7" d="M494.5,489.7c2.3-3.6,3.4-7.6,3.4-11.9c0-4-0.9-7.6-2.7-10.9c-1.8-3.3-4.6-5.9-8.3-7.8
					c-3.7-1.9-8.4-2.9-14.1-2.9h-26.1v71.1h13v-28h10.8l13.2,28h14.9l-14.7-29.8C488.7,495.9,492.2,493.3,494.5,489.7z M481.6,486.5
					c-2,2.1-5.2,3.1-9.6,3.1h-12.3V467h12.2c4.5,0,7.7,1,9.7,3c2,2,3,4.7,3,8.1C484.6,481.6,483.6,484.4,481.6,486.5z"/>
				<path class="st7" d="M567,459.6c-5.4-3.1-11.5-4.7-18.6-4.7c-7.1,0-13.3,1.6-18.6,4.7c-5.3,3.1-9.5,7.4-12.5,13
					c-3,5.5-4.5,11.9-4.5,19.2c0,7.2,1.5,13.6,4.5,19.2c3,5.5,7.2,9.8,12.5,13c5.3,3.1,11.5,4.7,18.6,4.7c7,0,13.2-1.6,18.6-4.7
					c5.3-3.1,9.5-7.4,12.5-13c3-5.5,4.5-11.9,4.5-19.2c0-7.2-1.5-13.6-4.5-19.2C576.5,467,572.4,462.7,567,459.6z M564.6,510.1
					c-4,4.5-9.4,6.7-16.2,6.7c-6.8,0-12.2-2.2-16.3-6.7c-4.1-4.5-6.1-10.6-6.1-18.4s2-13.9,6.1-18.4c4.1-4.5,9.5-6.7,16.3-6.7
					c6.8,0,12.2,2.2,16.2,6.7c4,4.5,6,10.6,6,18.4S568.6,505.6,564.6,510.1z"/>
				<path class="st7" d="M627.8,506.7c0,3-0.7,5.5-2.1,7.4c-1.4,1.9-3.7,2.8-6.8,2.8c-3.3,0-5.7-1-7.2-2.9c-1.5-2-2.3-4.6-2.3-7.9
					h-13c0,7.2,2.1,12.7,6.2,16.6c4.2,3.9,9.7,5.8,16.6,5.8c6.6,0,11.9-1.9,15.8-5.6c3.9-3.8,5.8-9.1,5.8-16.1v-50.6h-13V506.7z"/>
				<path class="st7" d="M672.7,466.6v19.5H703v10.2h-30.4v18.8c-4.4,2.4-8.8,4.9-13,7.5v-66.4h46.4v10.5H672.7z"/>
				<path class="st7" d="M786.9,479.1h-14.3c-0.9-3.9-2.8-6.9-5.6-9.1c-2.9-2.2-6.7-3.3-11.4-3.3c-6.6,0-11.7,2.2-15.4,6.7
					c-3.7,4.5-5.6,10.6-5.6,18.4c0,0.4,0,0.8,0,1.3c-4.4,0.9-8.8,1.9-13.1,3h0c-0.1-1.4-0.2-2.8-0.2-4.3c0-7.2,1.4-13.7,4.2-19.2
					c2.8-5.5,6.7-9.9,11.9-13c5.1-3.1,11.3-4.7,18.5-4.7c8.5,0,15.5,2.1,21,6.3C782.1,465.5,785.5,471.4,786.9,479.1z"/>
				<path class="st7" d="M852.9,456.1v10.5h-20.8v28.7c-4.3-1.1-8.6-2-13-2.8v-25.9h-20.7v-10.5H852.9z"/>
			</g>
			<g>
				<path class="st8" d="M706.1,516.8v10.5h-46.4v-4.7c4.2-2.6,8.6-5.1,13-7.5v1.7H706.1z"/>
				<path class="st8" d="M786.9,505.1c-1.4,7.3-4.8,13-10.2,17.2c-5.5,4.1-12.5,6.2-21,6.2c-7.2,0-13.3-1.5-18.5-4.6
					c-5.1-3.1-9.1-7.4-11.9-12.9c-2.2-4.4-3.5-9.4-4-14.9c4.3-1.1,8.7-2.1,13.1-3c0.2,7.2,2.1,12.9,5.6,17.1
					c3.7,4.4,8.9,6.6,15.4,6.6c4.8,0,8.6-1,11.4-3.1c2.9-2.1,4.8-4.9,5.6-8.6H786.9z"/>
				<path class="st8" d="M832.1,495.3v32h-13v-34.8C823.5,493.3,827.8,494.2,832.1,495.3z"/>
			</g>
		</g>
		<g>
			<path class="st8" d="M380,577v-28.3h18.5v4.2h-13.3v7.8h12.1v4h-12.1v8.2h13.3v4.2H380z"/>
			<path class="st8" d="M419.6,577l-10.3-28.3h5.5l8,23l8-23h5.5L425.9,577H419.6z"/>
			<path class="st8" d="M447.7,577v-28.3h18.5v4.2h-13.3v7.8h12.1v4h-12.1v8.2h13.3v4.2H447.7z"/>
			<path class="st8" d="M479.1,577v-28.3h5.2l13.3,19.9v-19.9h5.2V577h-5.2l-13.3-19.9V577H479.1z"/>
			<path class="st8" d="M522.9,577v-24.1h-8.2v-4.2h21.7v4.2h-8.3V577H522.9z"/>
			<path class="st8" d="M579.2,577.4c-2.8,0-5.3-0.6-7.4-1.9c-2.1-1.2-3.8-3-5-5.1c-1.2-2.2-1.8-4.7-1.8-7.6s0.6-5.4,1.8-7.6
				s2.9-3.9,5-5.1c2.1-1.2,4.6-1.9,7.4-1.9c2.8,0,5.3,0.6,7.4,1.9c2.1,1.2,3.8,3,5,5.1c1.2,2.2,1.8,4.7,1.8,7.6s-0.6,5.4-1.8,7.6
				c-1.2,2.2-2.8,3.9-5,5.1S582,577.4,579.2,577.4z M579.2,572.8c2.7,0,4.8-0.9,6.4-2.7c1.6-1.8,2.4-4.2,2.4-7.3s-0.8-5.5-2.4-7.3
				c-1.6-1.8-3.7-2.7-6.4-2.7s-4.8,0.9-6.5,2.7c-1.6,1.8-2.4,4.2-2.4,7.3s0.8,5.5,2.4,7.3C574.3,571.9,576.5,572.8,579.2,572.8z"/>
			<path class="st8" d="M606,577v-28.3h10.4c2.3,0,4.1,0.4,5.6,1.2c1.5,0.8,2.6,1.8,3.3,3.1c0.7,1.3,1.1,2.8,1.1,4.3
				c0,1.7-0.5,3.3-1.4,4.7c-0.9,1.4-2.3,2.5-4.2,3.1l5.9,11.8h-5.9l-5.3-11.1h-4.3V577H606z M611.1,562h4.9c1.7,0,3-0.4,3.8-1.3
				c0.8-0.8,1.2-1.9,1.2-3.3c0-1.3-0.4-2.4-1.2-3.2c-0.8-0.8-2.1-1.2-3.9-1.2h-4.8V562z"/>
			<path class="st8" d="M651.6,577.4c-2.7,0-5-0.6-7-1.8c-2-1.2-3.5-2.9-4.6-5.1c-1.1-2.2-1.7-4.7-1.7-7.6c0-2.9,0.6-5.5,1.7-7.7
				c1.1-2.2,2.8-4,4.9-5.2c2.1-1.3,4.6-1.9,7.5-1.9c3.3,0,6.1,0.8,8.2,2.4c2.2,1.6,3.6,3.8,4.2,6.6h-5.8c-0.4-1.3-1.2-2.3-2.3-3.1
				c-1.1-0.7-2.6-1.1-4.4-1.1c-2.8,0-5,0.9-6.5,2.7c-1.5,1.8-2.3,4.2-2.3,7.4s0.8,5.5,2.3,7.2c1.5,1.7,3.6,2.6,6.2,2.6
				c2.6,0,4.5-0.7,5.8-2.1s2.1-3.2,2.4-5.5h-7.1v-3.9h12.4V577h-4.8l-0.4-3.7c-0.9,1.3-2.1,2.4-3.4,3.1
				C655.4,577.1,653.7,577.4,651.6,577.4z"/>
			<path class="st8" d="M676.7,577l10.3-28.3h5.8l10.3,28.3h-5.5l-2.3-6.5h-11l-2.3,6.5H676.7z M685.8,566.4h8.2l-4.1-11.8
				L685.8,566.4z"/>
			<path class="st8" d="M714.9,577v-28.3h5.2l13.3,19.9v-19.9h5.2V577h-5.2l-13.3-19.9V577H714.9z"/>
			<path class="st8" d="M752.1,577v-28.3h5.2V577H752.1z"/>
			<path class="st8" d="M770,577v-4l13-20h-12.9v-4.3H789v4l-13.1,20H789v4.3H770z"/>
			<path class="st8" d="M801.8,577v-28.3h18.5v4.2h-13.3v7.8H819v4h-12.1v8.2h13.3v4.2H801.8z"/>
			<path class="st8" d="M833.2,577v-28.3h10.4c2.3,0,4.1,0.4,5.6,1.2c1.5,0.8,2.6,1.8,3.3,3.1c0.7,1.3,1.1,2.8,1.1,4.3
				c0,1.7-0.5,3.3-1.4,4.7c-0.9,1.4-2.3,2.5-4.2,3.1l5.9,11.8h-5.9l-5.3-11.1h-4.3V577H833.2z M838.4,562h4.9c1.7,0,3-0.4,3.8-1.3
				c0.8-0.8,1.2-1.9,1.2-3.3c0-1.3-0.4-2.4-1.2-3.2c-0.8-0.8-2.1-1.2-3.9-1.2h-4.8V562z"/>
		</g>
	</g>
</g>
</svg>
